<svg width="26" height="26" viewBox="0 0 26 26" fill="none" xmlns="http://www.w3.org/2000/svg">
<g clip-path="url(#clip0)">
<path d="M25.4171 20.5475L21.4018 16.5318C20.602 15.7352 19.2776 15.7594 18.4499 16.5874L16.427 18.6098C16.2992 18.5394 16.1669 18.4658 16.0278 18.3878C14.7504 17.6799 13.002 16.7098 11.1621 14.8686C9.31684 13.0235 8.34579 11.2724 7.63581 9.99416C7.56089 9.85874 7.4891 9.72817 7.41822 9.60417L8.77589 8.24851L9.44338 7.58021C10.2723 6.75108 10.2951 5.42702 9.49723 4.62814L5.48194 0.611957C4.68404 -0.185797 3.35901 -0.161596 2.5301 0.667531L1.39846 1.80568L1.42938 1.83638C1.04992 2.32056 0.732839 2.87898 0.496874 3.48118C0.279359 4.0544 0.143935 4.6014 0.0820118 5.14952C-0.448181 9.54494 1.5604 13.562 7.01142 19.0131C14.5464 26.5476 20.6186 25.9784 20.8806 25.9506C21.4511 25.8824 21.9979 25.7461 22.5535 25.5303C23.1505 25.2971 23.7085 24.9804 24.1924 24.6018L24.2172 24.6238L25.3636 23.5012C26.1908 22.6722 26.2146 21.3477 25.4171 20.5475Z" fill="#FF8454"/>
</g>
<defs>
<clipPath id="clip0">
<rect width="26" height="26" fill="white"/>
</clipPath>
</defs>
</svg>
