<svg width="24" height="24" viewBox="0 0 24 24" fill="none" xmlns="http://www.w3.org/2000/svg">
<path d="M3.0816 0.000976562H20.9198C22.6146 0.000976562 24 1.3869 24 3.08162V20.9199C24 22.6141 22.6146 23.9991 20.9198 23.9991H3.0816C1.38688 23.9991 0 22.614 0 20.9199V3.08162C0 1.3869 1.38688 0.000976562 3.0816 0.000976562ZM17.4837 2.66634C16.8886 2.66634 16.4033 3.15362 16.4033 3.74834V6.33346C16.4033 6.92842 16.8886 7.41458 17.4837 7.41458H20.1959C20.79 7.41458 21.2764 6.92842 21.2764 6.33346V3.74834C21.2764 3.15362 20.79 2.66634 20.1959 2.66634H17.4837ZM21.2867 10.1495H19.175C19.3753 10.8035 19.4838 11.4931 19.4838 12.2102C19.4838 16.2007 16.1426 19.4374 12.0226 19.4374C7.9036 19.4374 4.56224 16.2007 4.56224 12.2102C4.56224 11.4931 4.67184 10.8035 4.87112 10.1495H2.668V20.288C2.668 20.8131 3.09672 21.2402 3.62128 21.2402H20.3338C20.8589 21.2402 21.2867 20.8131 21.2867 20.288V10.1495ZM12.0226 7.27826C9.36184 7.27826 7.20344 9.3685 7.20344 11.9493C7.20344 14.5275 9.36184 16.6193 12.0226 16.6193C14.6849 16.6193 16.8434 14.5275 16.8434 11.9493C16.8434 9.36842 14.6849 7.27826 12.0226 7.27826Z" fill="#FF8454"/>
</svg>
