<svg width="33" height="33" viewBox="0 0 33 33" fill="none" xmlns="http://www.w3.org/2000/svg">
<path d="M16.4995 0C9.80108 0 4.35089 5.45019 4.35089 12.1493C4.35089 13.8967 4.70854 15.565 5.41337 17.1084C8.45086 23.7551 14.2746 30.7727 15.9875 32.7649C16.1158 32.9139 16.3029 32.9997 16.4998 32.9997C16.6967 32.9997 16.8838 32.9139 17.0122 32.7649C18.7244 30.773 24.5481 23.7558 27.5866 17.1084C28.2918 15.565 28.6491 13.8967 28.6491 12.1493C28.6484 5.45019 23.1982 0 16.4995 0ZM16.4995 18.4596C13.0199 18.4596 10.1888 15.6285 10.1888 12.1489C10.1888 8.66903 13.0199 5.83789 16.4995 5.83789C19.9791 5.83789 22.8102 8.66903 22.8102 12.1489C22.8105 15.6285 19.9794 18.4596 16.4995 18.4596Z" fill="#FF8454"/>
</svg>
