<svg width="17" height="17" viewBox="0 0 17 17" fill="none" xmlns="http://www.w3.org/2000/svg">
<path d="M12.6782 9.96993C12.7924 9.76377 12.8963 9.55126 12.9888 9.33239C13.3389 8.50475 13.5164 7.62625 13.5164 6.72134C13.5164 5.81643 13.339 4.93796 12.9888 4.11029C12.651 3.31147 12.1675 2.59433 11.552 1.97876C10.9364 1.36319 10.2192 0.879761 9.42044 0.541889C8.59279 0.191855 7.71429 0.0143433 6.80941 0.0143433C5.90453 0.0143433 5.026 0.191855 4.19836 0.541946C3.39954 0.879819 2.6824 1.36325 2.06683 1.97882C1.45129 2.59439 0.967831 3.31152 0.629959 4.11034C0.279868 4.93802 0.102356 5.81648 0.102356 6.72137C0.102356 7.62625 0.279839 8.50475 0.62993 9.33242C0.967803 10.1313 1.45124 10.8484 2.06681 11.4639C2.68238 12.0795 3.39951 12.5629 4.19833 12.9008C5.026 13.2509 5.9045 13.4284 6.80938 13.4284C7.71427 13.4284 8.59276 13.2509 9.42044 12.9008C9.55914 12.8422 9.69518 12.7788 9.82884 12.7114L13.5868 16.4694C13.9197 16.8023 14.3623 16.9856 14.8331 16.9856C15.3039 16.9856 15.7465 16.8023 16.0794 16.4694L16.3823 16.1665C17.0695 15.4793 17.0695 14.3612 16.3823 13.674L12.6782 9.96993ZM10.0173 11.1623C9.67358 11.411 9.29986 11.6208 8.90256 11.7852C8.25762 12.0521 7.55078 12.1997 6.80938 12.1997C3.78379 12.1997 1.33109 9.74696 1.33109 6.72137C1.33109 3.69578 3.78379 1.24307 6.80938 1.24307C9.83498 1.24307 12.2877 3.6958 12.2877 6.72137C12.2877 7.55701 12.1003 8.34878 11.7657 9.05742C11.5846 9.44098 11.3604 9.80014 11.0992 10.1286C10.7875 10.5204 10.4234 10.8684 10.0173 11.1623ZM15.5134 15.2977L15.2105 15.6006C15.1063 15.7048 14.9697 15.7569 14.8331 15.7569C14.6965 15.7569 14.5599 15.7048 14.4557 15.6006L10.8955 12.0404C11.1253 11.8635 11.3445 11.6714 11.552 11.4639C11.7 11.3159 11.8403 11.1618 11.9729 11.0023L15.5134 14.5429C15.7219 14.7513 15.7219 15.0892 15.5134 15.2977Z" fill="#88C87B"/>
<path d="M14.8331 17C14.3585 17 13.9123 16.8152 13.5767 16.4796L9.82605 12.7289C9.69277 12.7959 9.55822 12.8581 9.42603 12.914C8.59663 13.2648 7.71627 13.4428 6.80941 13.4428C5.90263 13.4428 5.02224 13.2649 4.19276 12.914C3.39228 12.5755 2.6736 12.091 2.05668 11.4741C1.43976 10.8572 0.955324 10.1385 0.616734 9.33798C0.265926 8.50856 0.0880127 7.62823 0.0880127 6.72137C0.0880127 5.81456 0.265898 4.9342 0.616734 4.10475C0.955295 3.30427 1.43976 2.58558 2.05668 1.96867C2.6736 1.35178 3.39225 0.867311 4.19276 0.528722C5.02221 0.177885 5.90254 0 6.80941 0C7.71621 0 8.59658 0.177885 9.42603 0.528722C10.2266 0.867311 10.9452 1.35178 11.5621 1.96867C12.179 2.58553 12.6635 3.30421 13.0021 4.10475C13.3529 4.93414 13.5308 5.8145 13.5308 6.72137C13.5308 7.62814 13.3529 8.5085 13.0021 9.33798C12.9123 9.5502 12.8094 9.76193 12.696 9.96741L16.3925 13.6639C17.0852 14.3567 17.0852 15.4839 16.3925 16.1767L16.0895 16.4796C15.754 16.8152 15.3077 17 14.8331 17ZM9.83165 12.694L13.5969 16.4593C13.9272 16.7895 14.3661 16.9713 14.8331 16.9713C15.3001 16.9713 15.7391 16.7895 16.0693 16.4593L16.3722 16.1564C17.0538 15.4748 17.0538 14.3657 16.3722 13.6841L12.6605 9.97243L12.6657 9.96299C12.7807 9.75542 12.8849 9.5414 12.9757 9.32683C13.325 8.50088 13.5021 7.6243 13.5021 6.72137C13.5021 5.81837 13.325 4.94177 12.9757 4.11591C12.6385 3.31878 12.1561 2.60317 11.5419 1.98892C10.9276 1.37466 10.212 0.892264 9.41493 0.555109C8.58895 0.205821 7.71234 0.0286819 6.80941 0.0286819C5.90645 0.0286819 5.02984 0.205821 4.20395 0.555138C3.40685 0.892264 2.69124 1.37466 2.07696 1.98894C1.46268 2.60322 0.980277 3.31887 0.64315 4.11593C0.293834 4.94183 0.116723 5.81843 0.116723 6.7214C0.116723 7.62439 0.293834 8.50096 0.64315 9.32686C0.980277 10.1239 1.46268 10.8395 2.07696 11.4538C2.69127 12.0681 3.40688 12.5505 4.20395 12.8876C5.02987 13.2369 5.90647 13.4141 6.80941 13.4141C7.7124 13.4141 8.589 13.2369 9.41487 12.8876C9.54953 12.8307 9.68666 12.7671 9.82238 12.6986L9.83165 12.694ZM14.8331 15.7713C14.6867 15.7713 14.5491 15.7142 14.4455 15.6107L10.8738 12.039L10.8867 12.029C11.1172 11.8515 11.3376 11.658 11.5418 11.4538C11.6875 11.3081 11.8288 11.1531 11.9618 10.9931L11.9719 10.981L15.5236 14.5327C15.7373 14.7464 15.7373 15.0941 15.5236 15.3078L15.2207 15.6107C15.1171 15.7142 14.9795 15.7713 14.8331 15.7713ZM10.9172 12.0418L14.4658 15.5905C14.564 15.6886 14.6944 15.7426 14.8331 15.7426C14.9719 15.7426 15.1023 15.6886 15.2004 15.5905L15.5033 15.2876C15.7059 15.085 15.7059 14.7555 15.5033 14.553L11.9738 11.0235C11.8432 11.1799 11.7048 11.3314 11.5621 11.4741C11.3608 11.6754 11.1439 11.8663 10.9172 12.0418ZM6.80935 12.214C3.78069 12.214 1.31672 9.75003 1.31672 6.72137C1.31672 3.6927 3.78069 1.22873 6.80938 1.22873C9.83807 1.22873 12.302 3.69273 12.302 6.72137C12.302 7.54 12.1259 8.32801 11.7787 9.06356C11.5985 9.44517 11.3736 9.80647 11.1104 10.1375C10.7976 10.5307 10.4327 10.8794 10.0257 11.1739C9.67857 11.425 9.30255 11.6352 8.90803 11.7984C8.24169 12.0742 7.5356 12.214 6.80935 12.214ZM6.80938 1.25741C3.79655 1.25741 1.3454 3.70854 1.3454 6.72137C1.3454 9.73422 3.79652 12.1853 6.80935 12.1853C7.53182 12.1853 8.23421 12.0462 8.89705 11.772C9.28953 11.6096 9.6636 11.4005 10.0089 11.1506C10.4137 10.8577 10.7768 10.5108 11.0879 10.1197C11.3498 9.79041 11.5735 9.43094 11.7527 9.05131C12.0982 8.31966 12.2734 7.53576 12.2734 6.7214C12.2734 3.70854 9.82221 1.25741 6.80938 1.25741Z" fill="#88C87B"/>
</svg>
