<svg width="36" height="36" viewBox="0 0 36 36" fill="none" xmlns="http://www.w3.org/2000/svg">
<path d="M15.1694 21.3829C16.4611 22.2616 17.7467 22.6088 17.8008 22.6232C17.8653 22.6403 17.9318 22.6489 17.9984 22.6489H18.0014C18.0682 22.6489 18.1345 22.6403 18.199 22.6232C18.2531 22.6088 19.5388 22.2617 20.8304 21.3829C22.6182 20.1667 23.5631 18.5231 23.5631 16.6299C23.5631 14.8835 22.1424 13.4628 20.396 13.4628C19.4397 13.4628 18.5811 13.8888 17.9999 14.5611C17.4187 13.8888 16.5601 13.4628 15.6037 13.4628C13.8574 13.4628 12.4366 14.8836 12.4366 16.6299C12.4367 18.5232 13.3817 20.1667 15.1694 21.3829ZM15.6038 15.0047C16.4999 15.0047 17.229 15.7338 17.229 16.6299C17.229 17.0557 17.5742 17.4008 18 17.4008C18.4257 17.4008 18.7709 17.0557 18.7709 16.6299C18.7709 15.7337 19.5 15.0047 20.3961 15.0047C21.2922 15.0047 22.0213 15.7338 22.0213 16.6299C22.0213 17.997 21.3401 19.1596 19.9966 20.0852C19.1907 20.6405 18.3672 20.9502 18 21.072C17.6328 20.9502 16.8093 20.6405 16.0033 20.0852C14.6598 19.1596 13.9786 17.9971 13.9786 16.6299C13.9786 15.7338 14.7077 15.0047 15.6038 15.0047Z" fill="#97D9E8"/>
<path d="M33.7433 13.9144H31.0178L23.1564 6.05304C23.3841 5.65259 23.5147 5.19025 23.5147 4.69766C23.5147 3.18023 22.2802 1.94577 20.7628 1.94577C19.2454 1.94577 18.0109 3.18023 18.0109 4.69766C18.0109 6.21508 19.2454 7.44962 20.7628 7.44962C21.2281 7.44962 21.6665 7.33309 22.0511 7.12846L28.8371 13.9145H25.3899C24.0683 11.1611 21.2525 9.25552 17.9999 9.25552C14.7472 9.25552 11.9314 11.1612 10.6098 13.9146H7.16261L13.9486 7.12854C14.3333 7.33324 14.7717 7.44969 15.237 7.44969C16.7543 7.44969 17.9889 6.21516 17.9889 4.69773C17.9889 3.1803 16.7544 1.94584 15.237 1.94584C13.7196 1.94584 12.4851 3.1803 12.4851 4.69773C12.4851 5.19032 12.6159 5.65267 12.8435 6.05311L4.9821 13.9145H2.25665C1.01235 13.9145 0 14.9268 0 16.1711C0 17.4154 1.01235 18.4277 2.25665 18.4277H2.50952V31.7194C2.50952 33.0068 3.55697 34.0542 4.84436 34.0542H31.1556C32.4431 34.0542 33.4905 33.0068 33.4905 31.7194V18.4277H33.7433C34.9876 18.4277 36 17.4154 36 16.1711C36 14.9268 34.9876 13.9144 33.7433 13.9144ZM19.5529 4.69766C19.5529 4.03046 20.0957 3.48765 20.7629 3.48765C21.4301 3.48765 21.9729 4.03046 21.9729 4.69766C21.9729 5.36485 21.4301 5.90774 20.7629 5.90774C20.0957 5.90774 19.5529 5.36485 19.5529 4.69766ZM15.2371 3.48765C15.9043 3.48765 16.4471 4.03046 16.4471 4.69766C16.4471 5.36485 15.9043 5.90774 15.2371 5.90774C14.5699 5.90774 14.0271 5.36485 14.0271 4.69766C14.0271 4.03046 14.5699 3.48765 15.2371 3.48765ZM18 10.7973C21.6668 10.7973 24.6499 13.7804 24.6499 17.4472C24.6499 21.114 21.6667 24.0971 18 24.0971C14.3332 24.0971 11.3501 21.114 11.3501 17.4472C11.3501 13.7804 14.3332 10.7973 18 10.7973ZM1.54188 16.1711C1.54188 15.7769 1.86252 15.4564 2.25665 15.4564H10.0533C9.93748 15.9187 9.86112 16.3965 9.82779 16.8859H2.25665C1.86252 16.8858 1.54188 16.5652 1.54188 16.1711ZM31.9486 31.7194C31.9486 32.1566 31.5929 32.5123 31.1556 32.5123H27.3333V25.0854C27.3333 24.6596 26.9882 24.3145 26.5624 24.3145C26.1366 24.3145 25.7914 24.6596 25.7914 25.0854V32.5123H18.7709V27.886C18.7709 27.4603 18.4257 27.1151 18 27.1151C17.5742 27.1151 17.229 27.4603 17.229 27.886V32.5123H10.2476V25.0854C10.2476 24.6596 9.90246 24.3145 9.47668 24.3145C9.0509 24.3145 8.70574 24.6596 8.70574 25.0854V32.5123H4.84436C4.40713 32.5123 4.0514 32.1566 4.0514 31.7194V18.4277H9.86707C10.3531 22.4841 13.8148 25.639 18 25.639C22.1851 25.639 25.6468 22.4841 26.1329 18.4277H31.9486V31.7194ZM33.7433 16.8858H26.1721C26.1388 16.3964 26.0624 15.9186 25.9466 15.4563H33.7433C34.1374 15.4563 34.4581 15.7769 34.4581 16.1711C34.4581 16.5652 34.1374 16.8858 33.7433 16.8858Z" fill="#97D9E8"/>
</svg>
