<svg width="14" height="14" viewBox="0 0 14 14" fill="none" xmlns="http://www.w3.org/2000/svg">
<path d="M3.76983 5.93253C4.15034 6.09349 4.55399 6.17509 4.96953 6.17509C5.38506 6.17509 5.78869 6.09349 6.16922 5.93253C6.53626 5.77728 6.86568 5.55525 7.14833 5.2726C7.43099 4.98994 7.65302 4.6605 7.80827 4.29348C7.96923 3.91295 8.05083 3.50932 8.05083 3.09381C8.05083 2.67828 7.96923 2.27465 7.80827 1.89412C7.65302 1.52708 7.43099 1.19766 7.14833 0.915006C6.86568 0.63235 6.53626 0.410321 6.16922 0.255069C5.78869 0.0941128 5.38506 0.0125122 4.96953 0.0125122C4.55399 0.0125122 4.15036 0.0941128 3.76983 0.255069C3.40279 0.410321 3.07337 0.63235 2.79072 0.915006C2.50806 1.19766 2.28603 1.52708 2.1308 1.89412C1.96985 2.27465 1.88824 2.67828 1.88824 3.09381C1.88824 3.50932 1.96985 3.91297 2.1308 4.29348C2.28603 4.66052 2.50806 4.98996 2.79072 5.2726C3.07337 5.55525 3.40281 5.77728 3.76983 5.93253ZM4.96953 1.01417C6.11808 1.01417 7.04917 1.94525 7.04917 3.09381C7.04917 4.24237 6.11808 5.17344 4.96953 5.17344C3.82097 5.17344 2.8899 4.24235 2.8899 3.09381C2.8899 1.94525 3.82097 1.01417 4.96953 1.01417Z" fill="#88C87B"/>
<path d="M4.9687 6.18596C4.55158 6.18596 4.14643 6.10405 3.76447 5.94247C3.39606 5.78663 3.06537 5.56376 2.78164 5.28003C2.49791 4.99632 2.27504 4.66564 2.11923 4.2972C1.95766 3.91524 1.87573 3.51009 1.87573 3.09297C1.87573 2.67587 1.95764 2.27072 2.11923 1.88874C2.27504 1.52032 2.49789 1.18966 2.78164 0.905907C3.06537 0.622175 3.39606 0.399305 3.76447 0.243469C4.14643 0.0819046 4.55161 0 4.9687 0C5.3858 0 5.79098 0.0819046 6.17294 0.243492C6.54136 0.399305 6.87201 0.622199 7.15577 0.90593C7.4395 1.18964 7.66237 1.52032 7.81821 1.88876C7.97975 2.27072 8.06168 2.67589 8.06168 3.09299C8.06168 3.51009 7.97975 3.91524 7.81821 4.29722C7.66235 4.66566 7.43948 4.99634 7.15577 5.28005C6.87204 5.56378 6.54136 5.78665 6.17294 5.94249C5.79098 6.10403 5.38583 6.18596 4.9687 6.18596ZM4.9687 0.0233813C4.55474 0.0233813 4.15265 0.104678 3.77357 0.265003C3.40793 0.419647 3.07975 0.640857 2.79815 0.922438C2.51654 1.20404 2.29536 1.53222 2.14074 1.89783C1.98041 2.27691 1.89911 2.679 1.89911 3.09297C1.89911 3.50693 1.98041 3.90902 2.14074 4.28808C2.29538 4.65374 2.51657 4.98192 2.79815 5.2635C3.07973 5.54508 3.40793 5.76626 3.77357 5.92093C4.15263 6.08126 4.55474 6.16255 4.9687 6.16255C5.38267 6.16255 5.78476 6.08126 6.16384 5.92093C6.52948 5.76626 6.85766 5.54508 7.13926 5.2635C7.42084 4.98194 7.64203 4.65374 7.79667 4.28808C7.95702 3.909 8.03832 3.50691 8.03832 3.09297C8.03832 2.679 7.95702 2.27691 7.79667 1.89783C7.64203 1.53217 7.42084 1.20402 7.13926 0.922438C6.85766 0.640834 6.52948 0.419647 6.16384 0.265003C5.78476 0.104678 5.38267 0.0233813 4.9687 0.0233813ZM4.9687 5.1843C3.81554 5.1843 2.87739 4.24613 2.87739 3.09299C2.87739 1.93985 3.81556 1.00165 4.9687 1.00165C6.12185 1.00165 7.06005 1.93983 7.06005 3.09299C7.06005 4.24615 6.12187 5.1843 4.9687 5.1843ZM4.9687 1.02503C3.82842 1.02503 2.90077 1.95271 2.90077 3.09299C2.90077 4.23327 3.82845 5.16092 4.9687 5.16092C6.10896 5.16092 7.03666 4.23325 7.03666 3.09299C7.03666 1.95273 6.10896 1.02503 4.9687 1.02503Z" fill="#88C87B"/>
<path d="M13.7042 9.46106C13.54 9.07284 13.3051 8.72441 13.0061 8.42543C12.7071 8.12641 12.3587 7.89154 11.9705 7.72738C11.568 7.55715 11.1411 7.47082 10.7015 7.47082C10.262 7.47082 9.83506 7.55717 9.43262 7.72738C9.28856 7.78829 9.15003 7.859 9.01741 7.93905C8.96377 7.87763 8.90801 7.8178 8.84995 7.75972C8.52163 7.43138 8.13905 7.17351 7.71278 6.99324C7.27097 6.80635 6.80222 6.71161 6.31958 6.71161H3.61942C3.13678 6.71161 2.66803 6.80637 2.22622 6.99324C1.79998 7.17351 1.41739 7.43138 1.08907 7.75972C0.760748 8.08802 0.502876 8.4706 0.322606 8.89687C0.135719 9.33868 0.0409546 9.80741 0.0409546 10.29V12.0115C0.0409546 12.8175 0.69666 13.4732 1.50261 13.4732H8.43639C8.58035 13.4732 8.71949 13.4521 8.85101 13.4132C9.0328 13.5387 9.22707 13.6457 9.43259 13.7326C9.83506 13.9028 10.262 13.9891 10.7015 13.9891C11.141 13.9891 11.568 13.9028 11.9704 13.7326C12.3587 13.5684 12.7071 13.3336 13.0061 13.0346C13.3051 12.7356 13.54 12.3871 13.7041 11.9989C13.8744 11.5964 13.9607 11.1695 13.9607 10.73C13.9607 10.2905 13.8744 9.86352 13.7042 9.46106ZM10.7015 12.9875C10.3403 12.9875 9.99903 12.9025 9.69631 12.7517C9.54552 12.6766 9.40435 12.5852 9.27505 12.4796C9.13142 12.3624 9.00245 12.2279 8.89141 12.0792C8.61039 11.7028 8.44401 11.2359 8.44401 10.73C8.44401 10.2921 8.56882 9.88349 8.78458 9.53737C8.88797 9.37156 9.01224 9.22009 9.15379 9.08675C9.27811 8.96961 9.41571 8.86645 9.56414 8.77968C9.89814 8.58449 10.2867 8.47252 10.7015 8.47252C11.9483 8.47252 12.9591 9.48322 12.9591 10.73C12.9591 11.9768 11.9483 12.9875 10.7015 12.9875ZM1.50261 12.4715C1.24855 12.4715 1.04261 12.2656 1.04261 12.0115V10.29C1.04261 8.86694 2.19629 7.71326 3.61942 7.71326H6.31958C7.08787 7.71326 7.7775 8.0496 8.24959 8.58293C8.01996 8.84463 7.83507 9.13915 7.69889 9.46106C7.52868 9.86352 7.44235 10.2905 7.44235 10.73C7.44235 11.1695 7.52863 11.5965 7.69889 11.9989C7.76866 12.1639 7.85136 12.3216 7.94617 12.4715H1.50261V12.4715Z" fill="#88C87B"/>
<path d="M10.7007 14C10.2597 14 9.83119 13.9134 9.42726 13.7426C9.22438 13.6567 9.02959 13.55 8.84815 13.4251C8.71429 13.4642 8.57553 13.4841 8.43556 13.4841H1.50179C0.689385 13.4841 0.0284424 12.8231 0.0284424 12.0107V10.2892C0.0284424 9.80502 0.123511 9.33475 0.311005 8.89149C0.49186 8.46384 0.750574 8.08002 1.07997 7.75062C1.40937 7.4212 1.79322 7.16249 2.22084 6.98164C2.6641 6.79414 3.13439 6.6991 3.61859 6.6991H6.31874C6.80301 6.6991 7.27328 6.79417 7.71647 6.98164C8.14414 7.16249 8.52797 7.4212 8.85736 7.75062C8.91231 7.80559 8.9666 7.86358 9.0189 7.92318C9.14933 7.84497 9.28664 7.77522 9.42721 7.71578C9.83119 7.54494 10.2597 7.45831 10.7007 7.45831C11.1418 7.45831 11.5703 7.54494 11.9742 7.71578C12.3638 7.88055 12.7135 8.11626 13.0135 8.41636C13.3136 8.71636 13.5493 9.06605 13.7141 9.4557C13.885 9.85957 13.9716 10.288 13.9716 10.7291C13.9716 11.1702 13.885 11.5987 13.7141 12.0026C13.5493 12.3922 13.3136 12.7419 13.0136 13.042C12.7135 13.3421 12.3638 13.5778 11.9742 13.7426C11.5703 13.9134 11.1419 14 10.7007 14ZM8.85224 13.3996L8.85685 13.4027C9.03826 13.528 9.23324 13.6351 9.43635 13.721C9.83737 13.8906 10.2628 13.9766 10.7007 13.9766C11.1387 13.9766 11.5641 13.8906 11.9651 13.721C12.3519 13.5574 12.6991 13.3234 12.997 13.0255C13.2949 12.7275 13.529 12.3803 13.6926 11.9935C13.8622 11.5925 13.9482 11.1671 13.9482 10.7291C13.9482 10.2912 13.8622 9.86576 13.6925 9.46477C13.5289 9.07793 13.2949 8.73074 12.997 8.43286C12.6991 8.13492 12.3519 7.90089 11.9651 7.73732C11.5641 7.56769 11.1387 7.48167 10.7007 7.48167C10.2628 7.48167 9.83741 7.56769 9.43631 7.73732C9.29378 7.7976 9.15459 7.86853 9.02262 7.94822L9.01423 7.95329L9.00778 7.94593C8.95383 7.88415 8.89767 7.82402 8.84086 7.76715C8.51361 7.43989 8.13226 7.18286 7.7074 7.00317C7.26708 6.81691 6.79988 6.72248 6.31874 6.72248H3.61859C3.13752 6.72248 2.67032 6.81691 2.22996 7.00317C1.80512 7.18283 1.42377 7.43989 1.0965 7.76715C0.769232 8.0944 0.512202 8.47575 0.33254 8.90058C0.146284 9.34097 0.0518237 9.80817 0.0518237 10.2892V12.0107C0.0518237 12.8102 0.702268 13.4607 1.50179 13.4607H8.43556C8.57515 13.4607 8.71352 13.4407 8.84689 13.4012L8.85224 13.3996ZM10.7007 12.9983C10.3459 12.9983 10.0059 12.9186 9.69028 12.7613C9.53975 12.6863 9.39728 12.5943 9.26684 12.4879C9.12225 12.3698 8.99253 12.2344 8.88124 12.0853C8.58703 11.6913 8.43152 11.2223 8.43152 10.7292C8.43152 10.3041 8.5499 9.88961 8.77387 9.53036C8.87752 9.36419 9.00235 9.21176 9.145 9.07739C9.2703 8.95934 9.40907 8.8555 9.55747 8.76876C9.90312 8.56677 10.2984 8.46001 10.7007 8.46001C11.952 8.46001 12.9699 9.47796 12.9699 10.7292C12.9699 11.9804 11.9519 12.9983 10.7007 12.9983ZM10.7007 8.48337C10.3026 8.48337 9.9113 8.58903 9.56921 8.78891C9.42237 8.87477 9.28503 8.97753 9.16099 9.09439C9.01982 9.22738 8.89625 9.37822 8.79367 9.5427C8.57204 9.89824 8.45488 10.3085 8.45488 10.7291C8.45488 11.2172 8.60877 11.6813 8.89994 12.0713C9.01009 12.2189 9.1385 12.3529 9.28162 12.4697C9.41071 12.5751 9.55172 12.6661 9.70068 12.7404C10.013 12.896 10.3495 12.9749 10.7007 12.9749C11.9391 12.9749 12.9465 11.9675 12.9465 10.7291C12.9465 9.49077 11.9391 8.48337 10.7007 8.48337ZM7.96661 12.4824H1.50179C1.2417 12.4824 1.0301 12.2708 1.0301 12.0107V10.2892C1.0301 8.86191 2.19128 7.70073 3.61859 7.70073H6.31876C7.05943 7.70073 7.76609 8.01913 8.25752 8.57434L8.26434 8.58206L8.25756 8.5898C8.02871 8.85059 7.84409 9.14499 7.70885 9.46475C7.53922 9.86576 7.45322 10.2912 7.45322 10.7291C7.45322 11.1672 7.53922 11.5926 7.70883 11.9935C7.77778 12.1566 7.86069 12.315 7.95524 12.4644L7.96661 12.4824ZM3.61859 7.72411C2.20419 7.72411 1.05348 8.87482 1.05348 10.2892V12.0107C1.05348 12.2579 1.2546 12.459 1.50179 12.459H7.92421C7.83366 12.3138 7.754 12.1604 7.68729 12.0026C7.51647 11.5988 7.42984 11.1703 7.42984 10.7291C7.42984 10.288 7.51647 9.85957 7.68729 9.45565C7.8222 9.13673 8.00582 8.84293 8.23318 8.58215C7.74647 8.03669 7.04933 7.72411 6.31876 7.72411H3.61859Z" fill="#88C87B"/>
<path d="M11.8024 10.2292H11.2024V9.62912C11.2024 9.35252 10.9781 9.1283 10.7015 9.1283C10.4249 9.1283 10.2007 9.35252 10.2007 9.62912V10.2292H9.89728H9.60062C9.52807 10.2292 9.45921 10.2447 9.39699 10.2725C9.22194 10.3505 9.09979 10.5259 9.09979 10.73C9.09979 10.9341 9.22201 11.1096 9.3972 11.1876C9.45937 11.2153 9.52816 11.2308 9.60062 11.2308H9.89803H10.2007V11.8309C10.2007 12.1075 10.4249 12.3317 10.7015 12.3317C10.9781 12.3317 11.2023 12.1075 11.2023 11.8309V11.2308H11.8024C12.079 11.2308 12.3032 11.0066 12.3032 10.73C12.3032 10.4534 12.079 10.2292 11.8024 10.2292Z" fill="#88C87B"/>
<path d="M10.7007 12.3426C10.4181 12.3426 10.1882 12.1126 10.1882 11.83V11.2417H9.59986C9.52763 11.2417 9.45758 11.2268 9.39169 11.1975C9.20682 11.1151 9.08734 10.9313 9.08734 10.7292C9.08734 10.5271 9.2067 10.3433 9.39148 10.2609C9.45735 10.2316 9.52744 10.2166 9.59986 10.2166H10.1882V9.62827C10.1882 9.34566 10.4181 9.11575 10.7007 9.11575C10.9833 9.11575 11.2133 9.34566 11.2133 9.62827V10.2166H11.8016C12.0842 10.2166 12.3141 10.4465 12.3141 10.7292C12.3141 11.0118 12.0842 11.2417 11.8016 11.2417H11.2133V11.83C11.2133 12.1126 10.9833 12.3426 10.7007 12.3426ZM9.59986 10.24C9.53077 10.24 9.46387 10.2542 9.401 10.2823C9.22466 10.3609 9.11072 10.5363 9.11072 10.7292C9.11072 10.9221 9.22473 11.0975 9.40119 11.1761C9.46408 11.2041 9.53093 11.2183 9.59986 11.2183H10.2116V11.83C10.2116 12.0997 10.431 12.3192 10.7007 12.3192C10.9704 12.3192 11.1899 12.0997 11.1899 11.83V11.2183H11.8016C12.0713 11.2183 12.2907 10.9989 12.2907 10.7292C12.2907 10.4595 12.0713 10.24 11.8016 10.24H11.1899V9.62827C11.1899 9.35857 10.9704 9.13913 10.7007 9.13913C10.431 9.13913 10.2116 9.35857 10.2116 9.62827V10.24H9.59986Z" fill="#88C87B"/>
</svg>
