<svg width="16" height="16" viewBox="0 0 16 16" fill="none" xmlns="http://www.w3.org/2000/svg">
<g clip-path="url(#clip0)">
<path d="M6.3782 9.14628C6.35253 9.11941 6.3252 9.09286 6.29719 9.06762C6.28746 9.05855 6.03076 8.81752 5.78015 8.38055C5.46584 7.8325 5.30173 7.2327 5.29231 6.59782C5.29191 6.57121 5.29177 6.54443 5.29192 6.51757L6.63031 5.13884C6.91476 4.84587 7.06799 4.45969 7.06193 4.05144C7.05587 3.64321 6.89123 3.26175 6.59827 2.97733L4.17395 0.623977C3.56916 0.0369156 2.59952 0.0513137 2.01243 0.656047L1.03207 1.66596C0.66169 2.04753 0.443815 2.59672 0.32626 2.99023C0.156596 3.55811 0.0721734 4.21141 0.0820932 4.87946C0.0897782 5.39701 0.153011 5.92789 0.269984 6.45735C0.399454 7.04319 0.596191 7.63262 0.854672 8.20926C1.44352 9.52279 2.35621 10.785 3.56736 11.9607C4.62961 12.9919 5.75546 13.7943 6.9136 14.3456C7.91602 14.8228 8.93741 15.1114 9.94949 15.2033C10.7877 15.2794 11.6149 15.2162 12.3419 15.0204C12.6673 14.9327 12.9653 14.8209 13.2276 14.688C13.5159 14.5421 13.7532 14.3742 13.9328 14.1891L14.9132 13.1792C15.1975 12.8863 15.3508 12.5001 15.3447 12.0919C15.3387 11.6836 15.174 11.3022 14.881 11.0178L12.4567 8.66443C11.852 8.07737 10.8823 8.09177 10.2952 8.6965L8.95676 10.0753C8.32912 10.0978 7.73004 9.96868 7.17262 9.6904C6.67222 9.44052 6.38982 9.15805 6.3782 9.14628ZM11.6803 9.46421L14.1046 11.8176C14.1866 11.8972 14.2286 12.0025 14.2302 12.1084C14.2318 12.2143 14.1929 12.3208 14.1133 12.4029L13.133 13.4127C12.4228 14.1443 8.55247 15.2464 4.34376 11.1608C1.92345 8.81134 1.22127 6.52275 1.19662 4.86291C1.17841 3.63641 1.53013 2.75319 1.83187 2.44235L2.81223 1.43244C2.97147 1.26842 3.23351 1.26453 3.39755 1.42375L5.82182 3.7771C5.9038 3.85671 5.94583 3.96202 5.9474 4.06793C5.94898 4.17385 5.91009 4.28036 5.83051 4.36239L4.30499 5.93387C4.23661 6.00434 4.19555 6.09696 4.18893 6.19496C4.17923 6.33864 4.17571 6.47823 4.17773 6.61435C4.20745 8.61599 5.43191 9.78869 5.55094 9.89559C5.55845 9.90235 5.56558 9.90927 5.57253 9.91658C5.69046 10.0403 7.06053 11.388 9.31198 11.1681C9.40976 11.1586 9.5011 11.1148 9.56953 11.0443L11.095 9.47285C11.2543 9.30888 11.5163 9.30499 11.6803 9.46421Z" fill="#88C87B"/>
<path d="M0.0691188 4.88082C0.0591793 4.21144 0.143789 3.55679 0.313826 2.98765C0.431802 2.59273 0.650557 2.04147 1.02276 1.65805L2.00312 0.648139C2.59521 0.0382825 3.5731 0.023762 4.18303 0.615796L6.60735 2.96914C6.90277 3.25595 7.06886 3.64064 7.07497 4.05238C7.08109 4.46415 6.92649 4.85363 6.63966 5.14905L5.30494 6.52404C5.30482 6.54905 5.30498 6.57397 5.30535 6.59879C5.31474 7.23147 5.47829 7.82914 5.79149 8.37523C6.04126 8.81077 6.29538 9.04929 6.30609 9.05923C6.33413 9.0845 6.36164 9.11121 6.38765 9.13846C6.39917 9.1501 6.67825 9.43012 7.17852 9.6799C7.73156 9.956 8.32796 10.0851 8.95114 10.0636L10.286 8.6886C10.878 8.07869 11.8559 8.06417 12.4658 8.65625L14.8901 11.0096C15.1856 11.2964 15.3516 11.6811 15.3578 12.0928C15.3639 12.5046 15.2093 12.894 14.9225 13.1895L13.9421 14.1994C13.7615 14.3855 13.5231 14.5542 13.2335 14.7008C12.9704 14.8341 12.6715 14.9462 12.3453 15.0341C11.6168 15.2303 10.788 15.2937 9.94833 15.2175C8.9348 15.1254 7.91189 14.8364 6.90804 14.3586C5.74864 13.8066 4.6216 13.0034 3.55833 11.9712C2.34595 10.7943 1.43234 9.53081 0.842842 8.21581C0.58393 7.63818 0.386919 7.0479 0.25731 6.46138C0.14014 5.93094 0.0768158 5.39918 0.0691188 4.88082ZM7.04896 4.05279C7.04294 3.648 6.87966 3.2698 6.58923 2.98784L4.16491 0.634489C3.56527 0.0524507 2.60388 0.0667263 2.02179 0.666285L1.04143 1.6762C0.67289 2.05585 0.455895 2.60299 0.338737 2.99514C0.169469 3.56177 0.0852082 4.21371 0.0951087 4.88046C0.10278 5.39707 0.165896 5.92707 0.282728 6.45575C0.411947 7.04056 0.608385 7.62913 0.866571 8.20515C1.45475 9.51713 2.36645 10.7779 3.57645 11.9525C4.63769 12.9828 5.76238 13.7844 6.91924 14.3351C7.92029 14.8117 8.94025 15.0998 9.95071 15.1916C10.7874 15.2676 11.6131 15.2044 12.3385 15.009C12.663 14.9216 12.9602 14.8101 13.2218 14.6777C13.5088 14.5323 13.7449 14.3654 13.9235 14.1813L14.9038 13.1714C15.1858 12.8809 15.3378 12.498 15.3317 12.0932C15.3257 11.6885 15.1624 11.3102 14.872 11.0282L12.4477 8.67492C11.8481 8.09286 10.8867 8.10711 10.3046 8.70672L8.9625 10.0893L8.95727 10.0895C8.32779 10.112 7.72539 9.98201 7.16687 9.7032C6.66275 9.45151 6.38073 9.16851 6.36895 9.15659C6.34323 9.12967 6.31622 9.10342 6.2885 9.07844C6.27752 9.06827 6.02061 8.82708 5.76888 8.38818C5.45347 7.83822 5.28876 7.2363 5.2793 6.59918C5.27891 6.57246 5.27877 6.54561 5.27892 6.51865L5.27894 6.51342L5.28261 6.50967L6.621 5.13093C6.90298 4.8405 7.05497 4.45761 7.04896 4.05279ZM1.18367 4.8643C1.16587 3.66537 1.50239 2.76432 1.82259 2.4345L2.80295 1.42458C2.9669 1.25568 3.23776 1.25166 3.40666 1.41562L5.83093 3.76897C5.91278 3.84842 5.95878 3.95495 5.96047 4.06896C5.96216 4.18296 5.91935 4.29078 5.83989 4.37266L4.31437 5.94413C4.2483 6.01225 4.20836 6.10205 4.20194 6.19705C4.19249 6.33706 4.18873 6.47779 4.19077 6.61537C4.22116 8.66173 5.50503 9.83806 5.55967 9.88713C5.56743 9.89409 5.5748 9.9013 5.58201 9.90884C5.6394 9.96906 7.0141 11.3807 9.31078 11.1564C9.40557 11.1471 9.4942 11.1045 9.56027 11.0365L11.0858 9.46499C11.2497 9.29612 11.5205 9.29209 11.6894 9.45605L14.1137 11.8094C14.1955 11.8889 14.2415 11.9954 14.2432 12.1094C14.2449 12.2234 14.2021 12.3313 14.1227 12.4131L13.1423 13.423C12.7249 13.853 11.4989 14.239 10.0492 14.1074C8.69534 13.9844 6.60498 13.3752 4.33472 11.1714C3.22413 10.0933 2.39152 8.94548 1.85997 7.75978C1.42534 6.79021 1.1978 5.81604 1.18367 4.8643ZM5.93445 4.06934C5.93287 3.96231 5.88967 3.86227 5.81281 3.78764L3.38854 1.43429C3.22991 1.28033 2.9756 1.2841 2.82161 1.4427L1.84125 2.45262C1.52464 2.77875 1.19199 3.6724 1.20969 4.86391C1.22377 5.81209 1.45055 6.78281 1.88375 7.74912C2.41393 8.93177 3.24468 10.0769 4.35286 11.1527C6.61768 13.3512 8.70191 13.9588 10.0516 14.0814C11.6686 14.2283 12.7941 13.7444 13.1237 13.4049L14.104 12.395C14.1786 12.3181 14.2188 12.2168 14.2172 12.1097C14.2157 12.0027 14.1725 11.9027 14.0956 11.828L11.6713 9.47469C11.5127 9.32073 11.2584 9.32448 11.1045 9.48308L9.57896 11.0546C9.50858 11.127 9.41427 11.1724 9.31335 11.1823C7.00422 11.4078 5.62099 9.98734 5.5632 9.92676C5.55646 9.91968 5.5496 9.91299 5.54232 9.90646C5.48733 9.85706 4.19533 8.67331 4.16478 6.6157C4.16272 6.47742 4.16651 6.33596 4.17602 6.19525C4.18285 6.09413 4.22538 5.99849 4.29573 5.92596L5.82125 4.35448C5.89586 4.27765 5.93604 4.17637 5.93445 4.06934Z" fill="#88C87B"/>
</g>
<defs>
<clipPath id="clip0">
<rect width="15.1799" height="15.1799" fill="white" transform="translate(15.1782) rotate(89.1493)"/>
</clipPath>
</defs>
</svg>
