<svg width="13" height="13" viewBox="0 0 13 13" fill="none" xmlns="http://www.w3.org/2000/svg">
<path d="M11.6997 0.0112305H5.85132C5.58579 0.0112305 5.37054 0.226478 5.37054 0.492003C5.37054 0.757527 5.58579 0.972775 5.85132 0.972775H11.5954V12.0273H5.86941C5.60388 12.0273 5.38864 12.2425 5.38864 12.508C5.38864 12.7736 5.60388 12.9888 5.86941 12.9888H11.6996C12.1724 12.9888 12.5569 12.6042 12.5569 12.1315V0.868496C12.5569 0.395803 12.1724 0.0112305 11.6997 0.0112305Z" fill="#88C87B"/>
<path d="M11.6997 13H5.8694C5.59811 13 5.3774 12.7793 5.3774 12.508C5.3774 12.2367 5.59811 12.016 5.8694 12.016H11.5842V0.98399H5.85131C5.58002 0.98399 5.35931 0.763288 5.35931 0.491995C5.35931 0.220702 5.58002 0 5.85131 0H11.6997C12.1786 0 12.5682 0.389601 12.5682 0.868488V12.1315C12.5682 12.6104 12.1786 13 11.6997 13ZM5.8694 12.0385C5.6105 12.0385 5.39985 12.2491 5.39985 12.508C5.39985 12.7669 5.6105 12.9776 5.8694 12.9776H11.6997C12.1662 12.9776 12.5457 12.5981 12.5457 12.1315V0.868488C12.5457 0.40199 12.1662 0.022445 11.6997 0.022445H5.85131C5.59241 0.022445 5.38176 0.233092 5.38176 0.491995C5.38176 0.750898 5.59241 0.961545 5.85131 0.961545H11.6066V12.0385H5.8694Z" fill="#88C87B"/>
<path d="M0.443054 5.08832V7.83216C0.443054 8.52073 1.00324 9.08096 1.69183 9.08096H4.82387V9.52416C4.82387 9.70078 4.85981 9.87143 4.93067 10.0313C4.99827 10.1839 5.09445 10.3194 5.21653 10.4339C5.44998 10.6529 5.75467 10.7736 6.07442 10.7736C6.38499 10.7736 6.68324 10.6575 6.91422 10.4468L10.2731 7.38288C10.5319 7.14682 10.6803 6.81055 10.6803 6.4603C10.6803 6.11002 10.5319 5.77375 10.2731 5.53767L6.91425 2.47373C6.68326 2.26301 6.38504 2.14697 6.07446 2.14697C5.75467 2.14697 5.45 2.26759 5.21655 2.48661C5.09447 2.60113 4.99829 2.73656 4.93069 2.88916C4.85983 3.04908 4.8239 3.21971 4.8239 3.39631V3.83953H1.69183C1.00326 3.83953 0.443054 4.39976 0.443054 5.08832ZM5.49819 4.8011C5.65683 4.8011 5.78542 4.67249 5.78542 4.51384V3.39633C5.78542 3.22418 5.92642 3.10852 6.07444 3.10852C6.14101 3.10852 6.209 3.13193 6.26624 3.18411L9.62513 6.24801C9.74999 6.36192 9.74999 6.55852 9.62513 6.67243L6.26624 9.73635C6.209 9.78856 6.14101 9.81195 6.07444 9.81195C5.92644 9.81195 5.78542 9.69629 5.78542 9.52416V8.40664C5.78542 8.248 5.65683 8.11939 5.49819 8.11939H1.69183C1.53319 8.11939 1.4046 7.9908 1.4046 7.83214V5.08832C1.4046 4.92968 1.53319 4.80107 1.69183 4.80107L5.49819 4.8011Z" fill="#88C87B"/>
<path d="M6.07444 10.7847C5.75181 10.7847 5.4444 10.663 5.20887 10.442C5.08571 10.3265 4.98866 10.1898 4.92042 10.0358C4.84891 9.87448 4.81267 9.70233 4.81267 9.52412V9.09214H1.69182C0.997057 9.09214 0.431824 8.52689 0.431824 7.83212V5.08831C0.431824 4.39352 0.997057 3.82829 1.69182 3.82829H4.81264V3.39629C4.81264 3.21812 4.84889 3.04595 4.9204 2.88459C4.98861 2.73062 5.08567 2.59395 5.20884 2.4784C5.44438 2.25743 5.75179 2.13571 6.07444 2.13571C6.38779 2.13571 6.68873 2.25278 6.92178 2.46538L10.2807 5.52933C10.5418 5.76754 10.6916 6.10684 10.6916 6.46026C10.6916 6.81368 10.5418 7.15296 10.2807 7.39112L6.9218 10.4551C6.68873 10.6676 6.38779 10.7847 6.07444 10.7847ZM1.69182 3.85074C1.00942 3.85074 0.454269 4.40591 0.454269 5.08831V7.83215C0.454269 8.51454 1.00942 9.06972 1.69182 9.06972H4.83509V9.52414C4.83509 9.69919 4.87069 9.86829 4.94092 10.0268C5.00792 10.178 5.10322 10.3122 5.2242 10.4257C5.45556 10.6428 5.75751 10.7623 6.07441 10.7623C6.38216 10.7623 6.67774 10.6473 6.90665 10.4385L10.2656 7.37456C10.522 7.14061 10.6691 6.80735 10.6691 6.46026C10.6691 6.11315 10.522 5.77989 10.2656 5.54592L6.90667 2.48202C6.67778 2.27319 6.3822 2.1582 6.07446 2.1582C5.75753 2.1582 5.45558 2.27774 5.22424 2.49481C5.10326 2.60829 5.00794 2.74251 4.94094 2.89372C4.87073 3.05221 4.83511 3.22129 4.83511 3.39634V3.85078H1.69182V3.85074ZM6.07446 9.82315C5.93005 9.82315 5.77421 9.70882 5.77421 9.52414V8.40663C5.77421 8.25443 5.65038 8.1306 5.4982 8.1306H1.69182C1.52725 8.1306 1.39337 7.99669 1.39337 7.83212V5.08831C1.39337 4.92372 1.52725 4.78984 1.69182 4.78984H5.49816H5.49818C5.57189 4.78984 5.6412 4.76113 5.69332 4.70901C5.74546 4.65687 5.77417 4.58756 5.77417 4.51383V3.39631C5.77417 3.21161 5.93002 3.09728 6.07441 3.09728C6.14848 3.09728 6.21743 3.12441 6.27377 3.17579L9.63271 6.23972C9.69457 6.29614 9.73003 6.3765 9.73003 6.46022C9.73003 6.54394 9.69457 6.62429 9.63271 6.68072L6.27381 9.74462C6.2175 9.796 6.14855 9.82315 6.07446 9.82315ZM1.69182 4.81228C1.53962 4.81228 1.41581 4.93611 1.41581 5.08831V7.83215C1.41581 7.98434 1.53964 8.10817 1.69182 8.10817H5.49816C5.66273 8.10817 5.79661 8.24208 5.79661 8.40665V9.52416C5.79661 9.69499 5.94082 9.80073 6.07441 9.80073C6.14283 9.80073 6.20652 9.77562 6.25864 9.72808L9.61754 6.66415C9.67473 6.61197 9.70754 6.53765 9.70754 6.46024C9.70754 6.38283 9.67473 6.30849 9.61754 6.25633L6.25864 3.19242C6.2065 3.14488 6.1428 3.11977 6.07441 3.11977C5.90051 3.11977 5.79661 3.26041 5.79661 3.39636V4.51387C5.79661 4.67846 5.66273 4.81235 5.49816 4.81235L1.69182 4.81228Z" fill="#88C87B"/>
</svg>
