<svg width="18" height="18" viewBox="0 0 18 18" fill="none" xmlns="http://www.w3.org/2000/svg">
<path d="M5.28262 10.5653C4.95848 10.5653 4.69565 10.8281 4.69565 11.1523V13.5001C4.69565 13.8242 4.95844 14.087 5.28262 14.087C5.60679 14.087 5.86959 13.8243 5.86959 13.5001V11.1522C5.86959 10.8281 5.60676 10.5653 5.28262 10.5653Z" fill="#88C87B"/>
<path d="M8.80435 10.5653C8.4802 10.5653 8.21738 10.8281 8.21738 11.1523V13.5001C8.21738 13.8242 8.48017 14.087 8.80435 14.087C9.12849 14.087 9.39131 13.8243 9.39131 13.5001V11.1522C9.39128 10.8281 9.12849 10.5653 8.80435 10.5653Z" fill="#88C87B"/>
<path d="M16.1651 10.4709L16.3451 9.39129H17.0217C17.3459 9.39129 17.6087 9.1285 17.6087 8.80432V7.63042C17.6087 6.65947 16.8188 5.86955 15.8478 5.86955H15.2609V2.93477C15.2609 1.31653 13.9443 0 12.3261 0H5.28261C3.66437 0 2.34784 1.31653 2.34784 2.93477V5.86955H1.76087C0.789926 5.86958 0 6.65951 0 7.63042V8.80432C0 9.12846 0.262793 9.39129 0.586969 9.39129H1.26366L2.19234 14.9634C2.33448 15.816 3.06492 16.4348 3.92927 16.4348H10.6668C11.4199 17.3875 12.5854 18 13.8913 18C16.1568 18 18 16.1568 18 13.8913C18 12.466 17.2704 11.2081 16.1651 10.4709ZM3.52174 2.93477C3.52174 1.96383 4.31167 1.1739 5.28261 1.1739H12.3261C13.297 1.1739 14.087 1.96383 14.087 2.93477V5.86955H12.9131V2.93477C12.9131 2.61063 12.6503 2.3478 12.3261 2.3478H5.28261C4.95847 2.3478 4.69564 2.6106 4.69564 2.93477V5.86955H3.52174V2.93477ZM11.7391 3.52174V5.86958H5.86958V3.52174H11.7391ZM1.1739 8.21739V7.63042C1.1739 7.30677 1.43722 7.04345 1.76087 7.04345C2.1066 7.04345 14.5485 7.04345 15.8478 7.04345C16.1715 7.04345 16.4348 7.30677 16.4348 7.63042V8.21739C15.7579 8.21739 2.41566 8.21739 1.1739 8.21739ZM10.0176 15.2609H3.92924C3.64113 15.2609 3.39764 15.0546 3.35025 14.7704L2.45377 9.39129H15.1549L15.0614 9.95263C14.6904 9.8422 14.2977 9.78261 13.8913 9.78261C11.6258 9.78261 9.78261 11.6258 9.78261 13.8913C9.78261 14.3713 9.86565 14.8323 10.0176 15.2609ZM13.8913 16.8261C12.273 16.8261 10.9565 15.5096 10.9565 13.8913C10.9565 12.2731 12.273 10.9566 13.8913 10.9566C15.5095 10.9566 16.8261 12.2731 16.8261 13.8913C16.8261 15.5096 15.5095 16.8261 13.8913 16.8261Z" fill="#88C87B"/>
<path d="M15.0652 13.3043H14.4783V12.7173C14.4783 12.3932 14.2155 12.1304 13.8913 12.1304C13.5671 12.1304 13.3043 12.3932 13.3043 12.7173V13.3043H12.7174C12.3932 13.3043 12.1304 13.5671 12.1304 13.8913C12.1304 14.2155 12.3932 14.4782 12.7174 14.4782H13.3043V15.0652C13.3043 15.3894 13.5671 15.6522 13.8913 15.6522C14.2155 15.6522 14.4783 15.3894 14.4783 15.0652V14.4782H15.0652C15.3894 14.4782 15.6522 14.2155 15.6522 13.8913C15.6522 13.5671 15.3894 13.3043 15.0652 13.3043Z" fill="#88C87B"/>
</svg>
