<svg width="36" height="36" viewBox="0 0 36 36" fill="none" xmlns="http://www.w3.org/2000/svg">
<g clip-path="url(#clip0)">
<path fill-rule="evenodd" clip-rule="evenodd" d="M30.9831 20.7674C32.1773 21.9333 33.4377 23.0302 34.5087 24.3137C34.9819 24.884 35.4298 25.4726 35.7724 26.1345C36.258 27.0754 35.8182 28.1108 34.9745 28.167L29.7299 28.1647C28.3773 28.2769 27.2982 27.7324 26.3909 26.8075C25.6647 26.0679 24.9923 25.2807 24.2941 24.5162C24.0079 24.2037 23.7083 23.9096 23.3503 23.6772C22.6344 23.2125 22.0129 23.3548 21.6038 24.1015C21.1871 24.861 21.0926 25.7019 21.0517 26.5484C20.9955 27.7833 20.6222 28.108 19.3817 28.1646C16.7305 28.2896 14.2144 27.8885 11.8771 26.5511C9.81639 25.3721 8.21841 23.7076 6.82755 21.8233C4.1195 18.1541 2.04568 14.1222 0.181812 9.97743C-0.23773 9.0436 0.0690904 8.54232 1.09944 8.52458C2.81037 8.49135 4.52107 8.49371 6.23401 8.52222C6.92939 8.53239 7.38974 8.93123 7.65824 9.58816C8.5839 11.8642 9.71656 14.0297 11.1383 16.037C11.5169 16.5714 11.903 17.1057 12.4528 17.4819C13.061 17.8983 13.524 17.7603 13.8101 17.0828C13.9917 16.6532 14.0712 16.1905 14.1121 15.7304C14.2477 14.1474 14.2655 12.5672 14.0278 10.9898C13.8818 10.0053 13.3273 9.36804 12.345 9.18175C11.8437 9.08677 11.9184 8.90024 12.1611 8.61412C12.5826 8.12065 12.9791 7.81348 13.7695 7.81348H19.6966C20.6298 7.99764 20.837 8.41683 20.9647 9.35574L20.9698 15.9396C20.9596 16.3031 21.1514 17.3817 21.8061 17.6223C22.33 17.7936 22.6754 17.3744 22.9898 17.0421C24.409 15.5359 25.4218 13.7559 26.3266 11.9127C26.7282 11.1023 27.0735 10.2606 27.4081 9.41961C27.656 8.79556 28.045 8.48851 28.748 8.50211L34.4525 8.50719C34.6217 8.50719 34.7928 8.50968 34.9567 8.53771C35.9179 8.70153 36.1813 9.11504 35.8845 10.0537C35.4167 11.5264 34.5065 12.7537 33.6165 13.9867C32.6652 15.303 31.6477 16.5743 30.7043 17.8985C29.8376 19.1077 29.9064 19.7172 30.9831 20.7674Z" fill="#FF8454"/>
</g>
<defs>
<clipPath id="clip0">
<rect width="36" height="36" fill="white"/>
</clipPath>
</defs>
</svg>
