<?xml version="1.0" encoding="utf-8"?><svg width="14" height="14" fill="none" xmlns="http://www.w3.org/2000/svg" viewBox="0 0 14 14"><path d="M3.77 5.933c.38.16.784.242 1.2.242a3.063 3.063 0 0 0 2.178-.902 3.07 3.07 0 0 0 .903-2.18A3.063 3.063 0 0 0 7.148.916 3.07 3.07 0 0 0 4.97.013a3.063 3.063 0 0 0-2.18.902 3.07 3.07 0 0 0-.902 2.179 3.063 3.063 0 0 0 .903 2.179c.282.282.612.504.979.66zm1.2-4.919a2.08 2.08 0 1 1 0 4.16 2.08 2.08 0 0 1 0-4.16z" fill="#88C87B"/><path d="M4.969 6.186a3.074 3.074 0 0 1-2.187-.906 3.08 3.08 0 0 1-.906-2.187A3.074 3.074 0 0 1 2.782.906 3.082 3.082 0 0 1 4.969 0a3.074 3.074 0 0 1 2.187.906 3.081 3.081 0 0 1 .906 2.187 3.075 3.075 0 0 1-.906 2.187 3.082 3.082 0 0 1-2.187.906zm0-6.163a3.051 3.051 0 0 0-2.17.9 3.058 3.058 0 0 0-.9 2.17 3.051 3.051 0 0 0 .9 2.17 3.059 3.059 0 0 0 2.17.9 3.051 3.051 0 0 0 2.17-.9 3.058 3.058 0 0 0 .9-2.17 3.051 3.051 0 0 0-.9-2.17 3.058 3.058 0 0 0-2.17-.9zm0 5.161a2.094 2.094 0 0 1-2.092-2.091c0-1.153.939-2.091 2.092-2.091S7.06 1.94 7.06 3.093A2.094 2.094 0 0 1 4.97 5.184zm0-4.159A2.07 2.07 0 0 0 2.9 3.093a2.07 2.07 0 0 0 2.068 2.068 2.07 2.07 0 0 0 2.068-2.068 2.07 2.07 0 0 0-2.068-2.068zM13.704 9.461a3.247 3.247 0 0 0-.698-1.036 3.246 3.246 0 0 0-2.305-.954 3.24 3.24 0 0 0-1.684.468A3.564 3.564 0 0 0 6.32 6.712h-2.7A3.557 3.557 0 0 0 1.09 7.76a3.564 3.564 0 0 0-1.048 2.53v1.722c0 .806.656 1.461 1.462 1.461h6.933c.144 0 .283-.02.415-.06a3.251 3.251 0 0 0 3.12.32 3.246 3.246 0 0 0 1.035-.698 3.246 3.246 0 0 0 .955-2.305c0-.44-.087-.866-.257-1.269zm-3.003 3.527a2.248 2.248 0 0 1-1.81-.909 2.247 2.247 0 0 1-.447-1.349 2.247 2.247 0 0 1 .71-1.643 2.247 2.247 0 0 1 1.548-.614 2.258 2.258 0 1 1 0 4.515zm-9.198-.516a.46.46 0 0 1-.46-.46V10.29a2.577 2.577 0 0 1 2.576-2.577h2.7a2.57 2.57 0 0 1 1.93.87 3.243 3.243 0 0 0-.807 2.147 3.239 3.239 0 0 0 .504 1.742H1.503z" fill="#88C87B"/><path d="M10.7 14a3.252 3.252 0 0 1-1.852-.575 1.47 1.47 0 0 1-.412.06H1.502A1.475 1.475 0 0 1 .028 12.01v-1.722A3.568 3.568 0 0 1 1.08 7.751a3.576 3.576 0 0 1 2.539-1.052h2.7a3.568 3.568 0 0 1 2.538 1.052c.055.055.11.113.162.172a3.282 3.282 0 0 1 1.682-.465 3.251 3.251 0 0 1 2.313.958 3.257 3.257 0 0 1 .958 2.313 3.25 3.25 0 0 1-.958 2.313A3.259 3.259 0 0 1 10.7 14zm-1.848-.6l.005.003a3.248 3.248 0 1 0 .166-5.455l-.009.005-.006-.007a3.553 3.553 0 0 0-2.689-1.223h-2.7a3.545 3.545 0 0 0-2.523 1.044A3.553 3.553 0 0 0 .052 10.29v1.722c0 .8.65 1.45 1.45 1.45h6.934c.14 0 .278-.02.41-.06l.006-.001zm1.849-.402a2.245 2.245 0 0 1-1.434-.51 2.25 2.25 0 0 1-.835-1.759 2.263 2.263 0 0 1 1.125-1.96 2.268 2.268 0 0 1 3.413 1.96A2.272 2.272 0 0 1 10.7 13zm0-4.515a2.245 2.245 0 0 0-1 4.257 2.248 2.248 0 0 0 3.246-2.011A2.248 2.248 0 0 0 10.7 8.483zm-2.734 4H1.502a.472.472 0 0 1-.472-.472v-1.722A2.591 2.591 0 0 1 3.62 7.701h2.7c.74 0 1.447.318 1.939.873l.006.008-.006.008a3.234 3.234 0 0 0-.805 2.14 3.227 3.227 0 0 0 .502 1.734l.012.018zM3.619 7.723a2.568 2.568 0 0 0-2.566 2.565v1.722c0 .247.202.448.449.448h6.422a3.274 3.274 0 0 1-.237-3.003c.135-.32.319-.613.546-.874a2.567 2.567 0 0 0-1.914-.858h-2.7z" fill="#88C87B"/><path d="M11.802 10.23h-.6v-.6a.5.5 0 0 0-1.001 0v.6h-.6a.5.5 0 0 0 0 1.002h.6v.599a.5.5 0 1 0 1.001 0v-.6h.6a.5.5 0 1 0 0-1.002z" fill="#88C87B"/><path d="M10.7 12.343a.513.513 0 0 1-.512-.513v-.588H9.6a.513.513 0 0 1 0-1.025h.588v-.589a.513.513 0 0 1 1.025 0v.589h.589a.513.513 0 0 1 0 1.025h-.589v.588c0 .283-.23.513-.512.513zM9.6 10.24a.49.49 0 0 0 0 .978h.612v.612a.49.49 0 0 0 .978 0v-.612h.612a.49.49 0 0 0 0-.978h-.612v-.612a.49.49 0 0 0-.978 0v.612H9.6z" fill="#88C87B"/></svg>