<?xml version="1.0" encoding="utf-8"?><svg width="16" height="16" fill="none" xmlns="http://www.w3.org/2000/svg" viewBox="0 0 16 16"><g clip-path="url(#cclip0)" fill="#88C87B"><path d="M6.378 9.146a3.134 3.134 0 0 1-.598-.766 3.652 3.652 0 0 1-.488-1.862l1.338-1.38c.285-.292.438-.678.432-1.087a1.519 1.519 0 0 0-.464-1.074L4.174.624a1.53 1.53 0 0 0-2.162.032l-.98 1.01c-.37.382-.588.93-.706 1.324a6.365 6.365 0 0 0-.244 1.89c.008.517.071 1.048.188 1.577.13.586.326 1.176.585 1.752.589 1.314 1.501 2.576 2.712 3.752 1.063 1.03 2.188 1.833 3.347 2.385a8.95 8.95 0 0 0 3.035.857 6.91 6.91 0 0 0 2.393-.183c.325-.087.623-.2.886-.332.288-.146.525-.314.705-.499l.98-1.01c.284-.293.438-.679.432-1.087a1.518 1.518 0 0 0-.464-1.074l-2.424-2.354a1.53 1.53 0 0 0-2.162.033l-1.338 1.378a3.654 3.654 0 0 1-1.784-.385c-.5-.25-.783-.532-.795-.544zm5.302.318l2.425 2.354a.413.413 0 0 1 .008.585l-.98 1.01c-.71.731-4.58 1.833-8.79-2.252-2.42-2.35-3.122-4.638-3.146-6.298-.019-1.227.333-2.11.635-2.42l.98-1.01a.414.414 0 0 1 .586-.01l2.424 2.354a.413.413 0 0 1 .009.585L4.305 5.934a.415.415 0 0 0-.116.261c-.01.144-.013.283-.011.42.03 2.001 1.254 3.174 1.373 3.28a.385.385 0 0 1 .022.022c.117.123 1.488 1.471 3.739 1.251a.415.415 0 0 0 .258-.124l1.525-1.571a.414.414 0 0 1 .585-.009z"/><path d="M.07 4.88c-.01-.669.074-1.323.244-1.892.118-.395.337-.947.709-1.33l.98-1.01a1.543 1.543 0 0 1 2.18-.032l2.424 2.353c.296.287.462.672.468 1.083.006.412-.149.802-.435 1.097L5.305 6.524v.075c.01.632.173 1.23.486 1.776a3.107 3.107 0 0 0 .597.763c.011.012.29.292.79.542.554.276 1.15.405 1.773.384l1.335-1.375a1.543 1.543 0 0 1 2.18-.033l2.424 2.354c.296.286.462.671.468 1.083.006.412-.149.801-.436 1.097l-.98 1.01c-.18.186-.419.354-.709.5a4.645 4.645 0 0 1-.888.334 6.925 6.925 0 0 1-2.397.183 8.966 8.966 0 0 1-3.04-.858c-1.16-.552-2.286-1.356-3.35-2.388-1.212-1.177-2.126-2.44-2.715-3.755A9.11 9.11 0 0 1 .257 6.46a7.891 7.891 0 0 1-.188-1.58zm6.979-.827a1.506 1.506 0 0 0-.46-1.065L4.165.634a1.517 1.517 0 0 0-2.143.032l-.98 1.01c-.37.38-.586.927-.703 1.32A6.353 6.353 0 0 0 .095 4.88c.008.517.07 1.047.188 1.576.129.585.325 1.173.584 1.75.588 1.311 1.5 2.572 2.71 3.747 1.06 1.03 2.185 1.831 3.342 2.382a8.937 8.937 0 0 0 3.032.857 6.896 6.896 0 0 0 2.387-.183c.325-.087.622-.199.884-.331.287-.146.523-.313.702-.497l.98-1.01c.282-.29.434-.673.428-1.078a1.506 1.506 0 0 0-.46-1.065l-2.424-2.353a1.517 1.517 0 0 0-2.143.032l-1.342 1.382h-.006a3.671 3.671 0 0 1-1.79-.386 3.214 3.214 0 0 1-.878-.625 3.136 3.136 0 0 1-.52-.69 3.665 3.665 0 0 1-.49-1.87v-.005l.004-.003L6.62 5.13c.282-.29.434-.672.428-1.077zm-5.865.811c-.018-1.199.318-2.1.639-2.43l.98-1.01a.427.427 0 0 1 .604-.008L5.83 3.769a.424.424 0 0 1 .009.604L4.314 5.944a.403.403 0 0 0-.112.253c-.01.14-.013.28-.011.418.03 2.047 1.314 3.223 1.369 3.272a.405.405 0 0 1 .022.022c.057.06 1.432 1.472 3.729 1.247a.403.403 0 0 0 .25-.12l1.525-1.571a.427.427 0 0 1 .603-.009l2.425 2.353a.424.424 0 0 1 .009.604l-.98 1.01c-.418.43-1.644.816-3.094.684-1.354-.123-3.444-.732-5.714-2.936-1.11-1.078-1.943-2.226-2.475-3.411-.435-.97-.662-1.944-.676-2.896zm4.75-.795a.398.398 0 0 0-.121-.281L3.389 1.434a.401.401 0 0 0-.567.009l-.98 1.01c-.317.326-.65 1.22-.632 2.41.014.95.24 1.92.674 2.886.53 1.183 1.36 2.328 2.469 3.404 2.265 2.198 4.349 2.806 5.699 2.928 1.617.147 2.742-.337 3.072-.676l.98-1.01a.398.398 0 0 0-.008-.567L11.67 9.475a.401.401 0 0 0-.566.008l-1.526 1.572a.43.43 0 0 1-.266.127c-2.309.226-3.692-1.195-3.75-1.255a.367.367 0 0 0-.02-.02c-.056-.05-1.348-1.234-1.378-3.291a5.13 5.13 0 0 1 .011-.42.429.429 0 0 1 .12-.27L5.82 4.354a.398.398 0 0 0 .113-.285z"/></g><defs><clipPath id="cclip0"><path fill="#fff" transform="rotate(89.149 7.59 7.703)" d="M0 0h15.18v15.18H0z"/></clipPath></defs></svg>