<?xml version="1.0" encoding="utf-8"?><svg width="26" height="26" fill="none" xmlns="http://www.w3.org/2000/svg" viewBox="0 0 26 26"><g clip-path="url(#dclip0)"><path d="M25.417 20.547l-4.015-4.015c-.8-.797-2.124-.773-2.952.055l-2.023 2.023-.4-.222c-1.277-.708-3.025-1.678-4.865-3.52-1.845-1.845-2.816-3.596-3.526-4.874-.075-.135-.147-.266-.218-.39L8.776 8.25l.667-.669c.83-.829.852-2.153.054-2.952L5.482.612C4.684-.186 3.359-.162 2.53.668L1.398 1.806l.031.03a6.544 6.544 0 0 0-.932 1.645A6.82 6.82 0 0 0 .082 5.15c-.53 4.395 1.478 8.412 6.93 13.863 7.534 7.535 13.607 6.965 13.869 6.938a6.784 6.784 0 0 0 1.672-.42 6.523 6.523 0 0 0 1.64-.93l.024.023 1.147-1.123c.827-.829.85-2.153.053-2.954z" fill="#FF8454"/></g><defs><clipPath id="dclip0"><path fill="#fff" d="M0 0h26v26H0z"/></clipPath></defs></svg>