<?xml version="1.0" encoding="utf-8"?><svg width="13" height="13" fill="none" xmlns="http://www.w3.org/2000/svg" viewBox="0 0 13 13"><path d="M11.7.011H5.85a.48.48 0 1 0 0 .962h5.744v11.054H5.87a.48.48 0 1 0 0 .962h5.83a.858.858 0 0 0 .858-.857V.868A.858.858 0 0 0 11.7.011z" fill="#88C87B"/><path d="M11.7 13H5.87a.493.493 0 0 1 0-.984h5.714V.984H5.851a.493.493 0 0 1 0-.984H11.7a.87.87 0 0 1 .868.868v11.264A.87.87 0 0 1 11.7 13zm-5.83-.961a.47.47 0 0 0 0 .939h5.83c.466 0 .846-.38.846-.846V.868A.847.847 0 0 0 11.7.022H5.85a.47.47 0 0 0 0 .94h5.756v11.077H5.869z" fill="#88C87B"/><path d="M.443 5.088v2.744c0 .689.56 1.249 1.249 1.249h3.132v.443a1.244 1.244 0 0 0 .393.91 1.25 1.25 0 0 0 1.697.013l3.36-3.064a1.251 1.251 0 0 0 0-1.845l-3.36-3.064a1.244 1.244 0 0 0-1.697.013 1.235 1.235 0 0 0-.393.91v.443H1.692A1.25 1.25 0 0 0 .443 5.088zm5.055-.287a.287.287 0 0 0 .287-.287V3.396a.287.287 0 0 1 .481-.212l3.36 3.064a.287.287 0 0 1 0 .424l-3.36 3.064a.287.287 0 0 1-.48-.212V8.407a.287.287 0 0 0-.288-.288H1.692a.287.287 0 0 1-.287-.287V5.088c0-.158.128-.287.287-.287h3.806z" fill="#88C87B"/><path d="M6.074 10.785a1.26 1.26 0 0 1-1.261-1.26v-.433H1.692c-.695 0-1.26-.565-1.26-1.26V5.088c0-.694.565-1.26 1.26-1.26h3.12v-.432a1.255 1.255 0 0 1 .397-.918 1.26 1.26 0 0 1 1.713-.013L10.28 5.53a1.263 1.263 0 0 1 0 1.862l-3.36 3.064c-.232.213-.533.33-.847.33zM1.692 3.85c-.683 0-1.238.555-1.238 1.237v2.744c0 .683.555 1.238 1.238 1.238h3.143v.454a1.233 1.233 0 0 0 1.24 1.238c.307 0 .603-.115.832-.324l3.359-3.063a1.24 1.24 0 0 0 0-1.83l-3.36-3.063a1.233 1.233 0 0 0-1.682.013 1.224 1.224 0 0 0-.389.901v.455H1.692zm4.382 5.972a.3.3 0 0 1-.3-.299V8.407a.276.276 0 0 0-.276-.276H1.692a.299.299 0 0 1-.299-.299V5.088c0-.164.134-.298.299-.298h3.806a.274.274 0 0 0 .276-.276V3.396a.3.3 0 0 1 .3-.299c.074 0 .143.027.2.079L9.633 6.24a.3.3 0 0 1 0 .44l-3.36 3.065a.292.292 0 0 1-.199.078zm-4.382-5.01a.276.276 0 0 0-.276.275v2.744c0 .152.124.276.276.276h3.806c.165 0 .299.134.299.299v1.117c0 .171.144.277.277.277a.27.27 0 0 0 .185-.073l3.359-3.064a.277.277 0 0 0 0-.408l-3.36-3.064a.274.274 0 0 0-.462.204v1.118a.299.299 0 0 1-.298.298H1.692z" fill="#88C87B"/></svg>