<?xml version="1.0" encoding="utf-8"?><svg width="33" height="33" fill="none" xmlns="http://www.w3.org/2000/svg" viewBox="0 0 33 33"><path d="M16.5 0C9.8 0 4.35 5.45 4.35 12.15c0 1.747.359 3.415 1.063 4.958 3.038 6.647 8.862 13.665 10.575 15.657a.676.676 0 0 0 1.024 0c1.712-1.992 7.536-9.01 10.575-15.657a11.845 11.845 0 0 0 1.062-4.959C28.65 5.45 23.2 0 16.5 0zm0 18.46a6.318 6.318 0 0 1-6.311-6.311 6.318 6.318 0 0 1 6.31-6.311c3.48 0 6.311 2.831 6.311 6.31 0 3.48-2.83 6.312-6.31 6.312z" fill="#FF8454"/></svg>