<?xml version="1.0" encoding="utf-8"?><svg width="18" height="18" fill="none" xmlns="http://www.w3.org/2000/svg" viewBox="0 0 18 18"><path d="M5.283 10.565a.587.587 0 0 0-.587.587V13.5a.587.587 0 0 0 1.174 0v-2.348a.587.587 0 0 0-.587-.587zM8.804 10.565a.587.587 0 0 0-.587.587V13.5a.587.587 0 0 0 1.174 0v-2.348a.587.587 0 0 0-.587-.587z" fill="#88C87B"/><path d="M16.165 10.47l.18-1.079h.677a.587.587 0 0 0 .587-.587V7.63c0-.97-.79-1.76-1.761-1.76h-.587V2.935A2.938 2.938 0 0 0 12.326 0H5.283a2.938 2.938 0 0 0-2.935 2.935V5.87H1.76C.79 5.87 0 6.66 0 7.63v1.174c0 .324.263.587.587.587h.677l.928 5.572a1.755 1.755 0 0 0 1.737 1.472h6.738A4.104 4.104 0 0 0 13.89 18 4.113 4.113 0 0 0 18 13.891c0-1.425-.73-2.683-1.835-3.42zM3.522 2.936c0-.971.79-1.761 1.76-1.761h7.044c.971 0 1.761.79 1.761 1.76V5.87h-1.174V2.935a.587.587 0 0 0-.587-.587H5.283a.587.587 0 0 0-.587.587V5.87H3.522V2.935zm8.217.587V5.87H5.87V3.522h5.87zM1.174 8.217V7.63c0-.323.263-.587.587-.587h14.087c.324 0 .587.264.587.587v.587H1.174zm8.844 7.044H3.929a.585.585 0 0 1-.579-.49l-.896-5.38h12.7l-.093.562a4.113 4.113 0 0 0-5.044 5.308zm3.873 1.565a2.938 2.938 0 0 1-2.934-2.935 2.938 2.938 0 0 1 2.934-2.934 2.938 2.938 0 0 1 2.935 2.934 2.938 2.938 0 0 1-2.935 2.935z" fill="#88C87B"/><path d="M15.065 13.304h-.587v-.587a.587.587 0 0 0-1.174 0v.587h-.587a.587.587 0 1 0 0 1.174h.587v.587a.587.587 0 1 0 1.174 0v-.587h.587a.587.587 0 1 0 0-1.174z" fill="#88C87B"/></svg>