<?xml version="1.0" encoding="utf-8"?><svg width="17" height="17" fill="none" xmlns="http://www.w3.org/2000/svg" viewBox="0 0 17 17"><path d="M12.678 9.97a6.69 6.69 0 0 0 .838-3.249 6.683 6.683 0 0 0-1.964-4.743A6.684 6.684 0 0 0 6.809.015a6.683 6.683 0 0 0-4.743 1.964A6.684 6.684 0 0 0 .103 6.722a6.681 6.681 0 0 0 1.964 4.743 6.683 6.683 0 0 0 4.743 1.964 6.666 6.666 0 0 0 3.02-.717l3.758 3.758a1.75 1.75 0 0 0 1.246.517c.47 0 .913-.184 1.246-.517l.303-.303a1.764 1.764 0 0 0 0-2.492L12.678 9.97zm-2.66 1.192A5.469 5.469 0 0 1 6.808 12.2a5.478 5.478 0 1 1 3.208-1.038zm5.495 4.136l-.303.303a.532.532 0 0 1-.754 0l-3.56-3.56a6.755 6.755 0 0 0 1.077-1.039l3.54 3.54a.534.534 0 0 1 0 .756z" fill="#88C87B"/><path d="M14.833 17c-.475 0-.92-.185-1.256-.52l-3.75-3.751a6.68 6.68 0 0 1-3.017.714 6.696 6.696 0 0 1-4.753-1.969A6.697 6.697 0 0 1 .088 6.721a6.697 6.697 0 0 1 1.969-4.753A6.698 6.698 0 0 1 6.809 0a6.697 6.697 0 0 1 4.753 1.969 6.697 6.697 0 0 1 1.969 4.752 6.681 6.681 0 0 1-.835 3.246l3.696 3.697c.693.693.693 1.82 0 2.513l-.302.303c-.336.335-.782.52-1.257.52zm-5.001-4.306l3.765 3.765c.33.33.77.512 1.236.512.467 0 .906-.181 1.236-.512l.303-.303a1.75 1.75 0 0 0 0-2.472l-3.711-3.712.005-.009a6.653 6.653 0 0 0 .836-3.242 6.67 6.67 0 0 0-1.96-4.732A6.67 6.67 0 0 0 6.809.029a6.668 6.668 0 0 0-4.732 1.96A6.669 6.669 0 0 0 .117 6.72a6.67 6.67 0 0 0 1.96 4.732 6.668 6.668 0 0 0 4.732 1.961 6.652 6.652 0 0 0 3.013-.715l.01-.005zm5.001 3.077a.545.545 0 0 1-.388-.16l-3.571-3.572.013-.01a6.778 6.778 0 0 0 1.075-1.036l.01-.012 3.552 3.552a.549.549 0 0 1 0 .775l-.303.303a.545.545 0 0 1-.388.16zm-3.916-3.73l3.549 3.55a.516.516 0 0 0 .734 0l.303-.303a.52.52 0 0 0 0-.735l-3.53-3.53a6.836 6.836 0 0 1-1.056 1.019zm-4.108.173a5.499 5.499 0 0 1-5.492-5.493A5.499 5.499 0 0 1 6.809 1.23a5.499 5.499 0 0 1 4.97 7.835 5.505 5.505 0 0 1-4.97 3.15zm0-10.957a5.47 5.47 0 0 0-5.464 5.464 5.47 5.47 0 0 0 7.552 5.051 5.46 5.46 0 0 0 2.19-1.652 5.415 5.415 0 0 0 1.186-3.398A5.47 5.47 0 0 0 6.81 1.256z" fill="#88C87B"/></svg>