<?xml version="1.0" encoding="utf-8"?><svg width="36" height="36" fill="none" xmlns="http://www.w3.org/2000/svg" viewBox="0 0 36 36"><g clip-path="url(#kclip0)"><path fill-rule="evenodd" clip-rule="evenodd" d="M30.983 20.767c1.194 1.166 2.455 2.263 3.526 3.547.473.57.92 1.159 1.263 1.82.486.941.046 1.977-.797 2.033l-5.245-.002c-1.353.112-2.432-.433-3.34-1.357-.725-.74-1.398-1.527-2.096-2.292-.286-.312-.586-.606-.944-.839-.716-.465-1.337-.322-1.746.425-.417.759-.511 1.6-.552 2.446-.056 1.235-.43 1.56-1.67 1.617-2.652.125-5.168-.276-7.505-1.614-2.06-1.179-3.659-2.843-5.05-4.728-2.707-3.669-4.781-7.7-6.645-11.846-.42-.933-.113-1.435.917-1.452 1.711-.034 3.422-.031 5.135-.003.695.01 1.156.41 1.424 1.066.926 2.276 2.059 4.442 3.48 6.449.379.534.765 1.069 1.315 1.445.608.416 1.071.278 1.357-.4.182-.429.261-.892.302-1.352.136-1.583.153-3.163-.084-4.74-.146-.985-.7-1.622-1.683-1.808-.501-.095-.427-.282-.184-.568.422-.493.818-.8 1.609-.8h5.927c.933.184 1.14.603 1.268 1.542l.005 6.584c-.01.363.181 1.442.836 1.682.524.172.87-.248 1.184-.58 1.419-1.506 2.432-3.286 3.337-5.13.401-.81.746-1.651 1.081-2.492.248-.624.637-.931 1.34-.918l5.704.005c.17 0 .34.003.505.03.96.165 1.224.578.928 1.517-.468 1.472-1.378 2.7-2.268 3.933-.952 1.316-1.97 2.587-2.913 3.911-.866 1.21-.798 1.82.28 2.87z" fill="#FF8454"/></g><defs><clipPath id="kclip0"><path fill="#fff" d="M0 0h36v36H0z"/></clipPath></defs></svg>