<?xml version="1.0" encoding="utf-8"?><svg viewBox="0 0 36 36" xmlns="http://www.w3.org/2000/svg" xmlns:xlink="http://www.w3.org/1999/xlink"><style>:root>svg{display:none}:root>svg:target{display:block}</style><svg fill="none" viewBox="0 0 20 20" id="Group_5" xmlns="http://www.w3.org/2000/svg"><path fill-rule="evenodd" clip-rule="evenodd" d="M10 20c5.523 0 10-4.477 10-10S15.523 0 10 0 0 4.477 0 10s4.477 10 10 10zM7.528 6.59l3.999 3.998-3.999 3.999 1.414 1.414 4.706-4.706.707-.707-.707-.707-4.706-4.706L7.528 6.59z" fill="#fff"/></svg><svg fill="none" viewBox="0 0 14 14" id="add-a-person-outlined-interface-sign" xmlns="http://www.w3.org/2000/svg"><path d="M3.77 5.933c.38.16.784.242 1.2.242a3.063 3.063 0 0 0 2.178-.902 3.07 3.07 0 0 0 .903-2.18A3.063 3.063 0 0 0 7.148.916 3.07 3.07 0 0 0 4.97.013a3.063 3.063 0 0 0-2.18.902 3.07 3.07 0 0 0-.902 2.179 3.063 3.063 0 0 0 .903 2.179c.282.282.612.504.979.66zm1.2-4.919a2.08 2.08 0 1 1 0 4.16 2.08 2.08 0 0 1 0-4.16z" fill="#88C87B"/><path d="M4.969 6.186a3.074 3.074 0 0 1-2.187-.906 3.08 3.08 0 0 1-.906-2.187A3.074 3.074 0 0 1 2.782.906 3.082 3.082 0 0 1 4.969 0a3.074 3.074 0 0 1 2.187.906 3.081 3.081 0 0 1 .906 2.187 3.075 3.075 0 0 1-.906 2.187 3.082 3.082 0 0 1-2.187.906zm0-6.163a3.051 3.051 0 0 0-2.17.9 3.058 3.058 0 0 0-.9 2.17 3.051 3.051 0 0 0 .9 2.17 3.059 3.059 0 0 0 2.17.9 3.051 3.051 0 0 0 2.17-.9 3.058 3.058 0 0 0 .9-2.17 3.051 3.051 0 0 0-.9-2.17 3.058 3.058 0 0 0-2.17-.9zm0 5.161a2.094 2.094 0 0 1-2.092-2.091c0-1.153.939-2.091 2.092-2.091S7.06 1.94 7.06 3.093A2.094 2.094 0 0 1 4.97 5.184zm0-4.159A2.07 2.07 0 0 0 2.9 3.093a2.07 2.07 0 0 0 2.068 2.068 2.07 2.07 0 0 0 2.068-2.068 2.07 2.07 0 0 0-2.068-2.068zM13.704 9.461a3.247 3.247 0 0 0-.698-1.036 3.246 3.246 0 0 0-2.305-.954 3.24 3.24 0 0 0-1.684.468A3.564 3.564 0 0 0 6.32 6.712h-2.7A3.557 3.557 0 0 0 1.09 7.76a3.564 3.564 0 0 0-1.048 2.53v1.722c0 .806.656 1.461 1.462 1.461h6.933c.144 0 .283-.02.415-.06a3.251 3.251 0 0 0 3.12.32 3.246 3.246 0 0 0 1.035-.698 3.246 3.246 0 0 0 .955-2.305c0-.44-.087-.866-.257-1.269zm-3.003 3.527a2.248 2.248 0 0 1-1.81-.909 2.247 2.247 0 0 1-.447-1.349 2.247 2.247 0 0 1 .71-1.643 2.247 2.247 0 0 1 1.548-.614 2.258 2.258 0 1 1 0 4.515zm-9.198-.516a.46.46 0 0 1-.46-.46V10.29a2.577 2.577 0 0 1 2.576-2.577h2.7a2.57 2.57 0 0 1 1.93.87 3.243 3.243 0 0 0-.807 2.147 3.239 3.239 0 0 0 .504 1.742H1.503z" fill="#88C87B"/><path d="M10.7 14a3.252 3.252 0 0 1-1.852-.575 1.47 1.47 0 0 1-.412.06H1.502A1.475 1.475 0 0 1 .028 12.01v-1.722A3.568 3.568 0 0 1 1.08 7.751a3.576 3.576 0 0 1 2.539-1.052h2.7a3.568 3.568 0 0 1 2.538 1.052c.055.055.11.113.162.172a3.282 3.282 0 0 1 1.682-.465 3.251 3.251 0 0 1 2.313.958 3.257 3.257 0 0 1 .958 2.313 3.25 3.25 0 0 1-.958 2.313A3.259 3.259 0 0 1 10.7 14zm-1.848-.6l.005.003a3.248 3.248 0 1 0 .166-5.455l-.009.005-.006-.007a3.553 3.553 0 0 0-2.689-1.223h-2.7a3.545 3.545 0 0 0-2.523 1.044A3.553 3.553 0 0 0 .052 10.29v1.722c0 .8.65 1.45 1.45 1.45h6.934c.14 0 .278-.02.41-.06l.006-.001zm1.849-.402a2.245 2.245 0 0 1-1.434-.51 2.25 2.25 0 0 1-.835-1.759 2.263 2.263 0 0 1 1.125-1.96 2.268 2.268 0 0 1 3.413 1.96A2.272 2.272 0 0 1 10.7 13zm0-4.515a2.245 2.245 0 0 0-1 4.257 2.248 2.248 0 0 0 3.246-2.011A2.248 2.248 0 0 0 10.7 8.483zm-2.734 4H1.502a.472.472 0 0 1-.472-.472v-1.722A2.591 2.591 0 0 1 3.62 7.701h2.7c.74 0 1.447.318 1.939.873l.006.008-.006.008a3.234 3.234 0 0 0-.805 2.14 3.227 3.227 0 0 0 .502 1.734l.012.018zM3.619 7.723a2.568 2.568 0 0 0-2.566 2.565v1.722c0 .247.202.448.449.448h6.422a3.274 3.274 0 0 1-.237-3.003c.135-.32.319-.613.546-.874a2.567 2.567 0 0 0-1.914-.858h-2.7z" fill="#88C87B"/><path d="M11.802 10.23h-.6v-.6a.5.5 0 0 0-1.001 0v.6h-.6a.5.5 0 0 0 0 1.002h.6v.599a.5.5 0 1 0 1.001 0v-.6h.6a.5.5 0 1 0 0-1.002z" fill="#88C87B"/><path d="M10.7 12.343a.513.513 0 0 1-.512-.513v-.588H9.6a.513.513 0 0 1 0-1.025h.588v-.589a.513.513 0 0 1 1.025 0v.589h.589a.513.513 0 0 1 0 1.025h-.589v.588c0 .283-.23.513-.512.513zM9.6 10.24a.49.49 0 0 0 0 .978h.612v.612a.49.49 0 0 0 .978 0v-.612h.612a.49.49 0 0 0 0-.978h-.612v-.612a.49.49 0 0 0-.978 0v.612H9.6z" fill="#88C87B"/></svg><svg fill="none" viewBox="0 0 16 16" id="call" xmlns="http://www.w3.org/2000/svg"><g clip-path="url(#cclip0)" fill="#88C87B"><path d="M6.378 9.146a3.134 3.134 0 0 1-.598-.766 3.652 3.652 0 0 1-.488-1.862l1.338-1.38c.285-.292.438-.678.432-1.087a1.519 1.519 0 0 0-.464-1.074L4.174.624a1.53 1.53 0 0 0-2.162.032l-.98 1.01c-.37.382-.588.93-.706 1.324a6.365 6.365 0 0 0-.244 1.89c.008.517.071 1.048.188 1.577.13.586.326 1.176.585 1.752.589 1.314 1.501 2.576 2.712 3.752 1.063 1.03 2.188 1.833 3.347 2.385a8.95 8.95 0 0 0 3.035.857 6.91 6.91 0 0 0 2.393-.183c.325-.087.623-.2.886-.332.288-.146.525-.314.705-.499l.98-1.01c.284-.293.438-.679.432-1.087a1.518 1.518 0 0 0-.464-1.074l-2.424-2.354a1.53 1.53 0 0 0-2.162.033l-1.338 1.378a3.654 3.654 0 0 1-1.784-.385c-.5-.25-.783-.532-.795-.544zm5.302.318l2.425 2.354a.413.413 0 0 1 .008.585l-.98 1.01c-.71.731-4.58 1.833-8.79-2.252-2.42-2.35-3.122-4.638-3.146-6.298-.019-1.227.333-2.11.635-2.42l.98-1.01a.414.414 0 0 1 .586-.01l2.424 2.354a.413.413 0 0 1 .009.585L4.305 5.934a.415.415 0 0 0-.116.261c-.01.144-.013.283-.011.42.03 2.001 1.254 3.174 1.373 3.28a.385.385 0 0 1 .022.022c.117.123 1.488 1.471 3.739 1.251a.415.415 0 0 0 .258-.124l1.525-1.571a.414.414 0 0 1 .585-.009z"/><path d="M.07 4.88c-.01-.669.074-1.323.244-1.892.118-.395.337-.947.709-1.33l.98-1.01a1.543 1.543 0 0 1 2.18-.032l2.424 2.353c.296.287.462.672.468 1.083.006.412-.149.802-.435 1.097L5.305 6.524v.075c.01.632.173 1.23.486 1.776a3.107 3.107 0 0 0 .597.763c.011.012.29.292.79.542.554.276 1.15.405 1.773.384l1.335-1.375a1.543 1.543 0 0 1 2.18-.033l2.424 2.354c.296.286.462.671.468 1.083.006.412-.149.801-.436 1.097l-.98 1.01c-.18.186-.419.354-.709.5a4.645 4.645 0 0 1-.888.334 6.925 6.925 0 0 1-2.397.183 8.966 8.966 0 0 1-3.04-.858c-1.16-.552-2.286-1.356-3.35-2.388-1.212-1.177-2.126-2.44-2.715-3.755A9.11 9.11 0 0 1 .257 6.46a7.891 7.891 0 0 1-.188-1.58zm6.979-.827a1.506 1.506 0 0 0-.46-1.065L4.165.634a1.517 1.517 0 0 0-2.143.032l-.98 1.01c-.37.38-.586.927-.703 1.32A6.353 6.353 0 0 0 .095 4.88c.008.517.07 1.047.188 1.576.129.585.325 1.173.584 1.75.588 1.311 1.5 2.572 2.71 3.747 1.06 1.03 2.185 1.831 3.342 2.382a8.937 8.937 0 0 0 3.032.857 6.896 6.896 0 0 0 2.387-.183c.325-.087.622-.199.884-.331.287-.146.523-.313.702-.497l.98-1.01c.282-.29.434-.673.428-1.078a1.506 1.506 0 0 0-.46-1.065l-2.424-2.353a1.517 1.517 0 0 0-2.143.032l-1.342 1.382h-.006a3.671 3.671 0 0 1-1.79-.386 3.214 3.214 0 0 1-.878-.625 3.136 3.136 0 0 1-.52-.69 3.665 3.665 0 0 1-.49-1.87v-.005l.004-.003L6.62 5.13c.282-.29.434-.672.428-1.077zm-5.865.811c-.018-1.199.318-2.1.639-2.43l.98-1.01a.427.427 0 0 1 .604-.008L5.83 3.769a.424.424 0 0 1 .009.604L4.314 5.944a.403.403 0 0 0-.112.253c-.01.14-.013.28-.011.418.03 2.047 1.314 3.223 1.369 3.272a.405.405 0 0 1 .022.022c.057.06 1.432 1.472 3.729 1.247a.403.403 0 0 0 .25-.12l1.525-1.571a.427.427 0 0 1 .603-.009l2.425 2.353a.424.424 0 0 1 .009.604l-.98 1.01c-.418.43-1.644.816-3.094.684-1.354-.123-3.444-.732-5.714-2.936-1.11-1.078-1.943-2.226-2.475-3.411-.435-.97-.662-1.944-.676-2.896zm4.75-.795a.398.398 0 0 0-.121-.281L3.389 1.434a.401.401 0 0 0-.567.009l-.98 1.01c-.317.326-.65 1.22-.632 2.41.014.95.24 1.92.674 2.886.53 1.183 1.36 2.328 2.469 3.404 2.265 2.198 4.349 2.806 5.699 2.928 1.617.147 2.742-.337 3.072-.676l.98-1.01a.398.398 0 0 0-.008-.567L11.67 9.475a.401.401 0 0 0-.566.008l-1.526 1.572a.43.43 0 0 1-.266.127c-2.309.226-3.692-1.195-3.75-1.255a.367.367 0 0 0-.02-.02c-.056-.05-1.348-1.234-1.378-3.291a5.13 5.13 0 0 1 .011-.42.429.429 0 0 1 .12-.27L5.82 4.354a.398.398 0 0 0 .113-.285z"/></g><defs><clipPath id="cclip0"><path fill="#fff" transform="rotate(89.149 7.59 7.703)" d="M0 0h15.18v15.18H0z"/></clipPath></defs></svg><svg fill="none" viewBox="0 0 26 26" id="call-answer" xmlns="http://www.w3.org/2000/svg"><g clip-path="url(#dclip0)"><path d="M25.417 20.547l-4.015-4.015c-.8-.797-2.124-.773-2.952.055l-2.023 2.023-.4-.222c-1.277-.708-3.025-1.678-4.865-3.52-1.845-1.845-2.816-3.596-3.526-4.874-.075-.135-.147-.266-.218-.39L8.776 8.25l.667-.669c.83-.829.852-2.153.054-2.952L5.482.612C4.684-.186 3.359-.162 2.53.668L1.398 1.806l.031.03a6.544 6.544 0 0 0-.932 1.645A6.82 6.82 0 0 0 .082 5.15c-.53 4.395 1.478 8.412 6.93 13.863 7.534 7.535 13.607 6.965 13.869 6.938a6.784 6.784 0 0 0 1.672-.42 6.523 6.523 0 0 0 1.64-.93l.024.023 1.147-1.123c.827-.829.85-2.153.053-2.954z" fill="#FF8454"/></g><defs><clipPath id="dclip0"><path fill="#fff" d="M0 0h26v26H0z"/></clipPath></defs></svg><svg fill="none" viewBox="0 0 32 32" id="envelope" xmlns="http://www.w3.org/2000/svg"><g clip-path="url(#eclip0)" fill="#FF8454"><path d="M1.326 4.22l9.74 9.741a6.985 6.985 0 0 0 9.867 0l9.741-9.74H1.326zM9.146 14.692L0 5.546v20.511l9.146-11.365z"/><path d="M21.482 15.977A8.83 8.83 0 0 1 16 17.875a8.83 8.83 0 0 1-5.482-1.898L1.02 27.78h29.96l-9.498-11.803zM22.854 14.692L32 26.057V5.546l-9.146 9.146z"/></g><defs><clipPath id="eclip0"><path fill="#fff" d="M0 0h32v32H0z"/></clipPath></defs></svg><svg fill="none" viewBox="0 0 24 24" id="instagram_(2)" xmlns="http://www.w3.org/2000/svg"><path d="M3.082.001H20.92A3.089 3.089 0 0 1 24 3.081V20.92A3.088 3.088 0 0 1 20.92 24H3.082A3.09 3.09 0 0 1 0 20.92V3.082A3.09 3.09 0 0 1 3.082 0zm14.402 2.665c-.595 0-1.08.488-1.08 1.082v2.585c0 .595.485 1.082 1.08 1.082h2.712c.594 0 1.08-.487 1.08-1.082V3.748c0-.594-.486-1.082-1.08-1.082h-2.712zm3.803 7.483h-2.112c.2.655.309 1.344.309 2.061 0 3.99-3.341 7.227-7.461 7.227s-7.46-3.236-7.46-7.227c0-.717.109-1.407.308-2.06H2.668v10.138c0 .525.429.952.953.952h16.713a.954.954 0 0 0 .953-.952V10.149zm-9.264-2.87c-2.661 0-4.82 2.09-4.82 4.67 0 2.579 2.159 4.67 4.82 4.67 2.662 0 4.82-2.091 4.82-4.67 0-2.58-2.158-4.67-4.82-4.67z" fill="#FF8454"/></svg><svg fill="none" viewBox="0 0 13 13" id="login-arrow-outline" xmlns="http://www.w3.org/2000/svg"><path d="M11.7.011H5.85a.48.48 0 1 0 0 .962h5.744v11.054H5.87a.48.48 0 1 0 0 .962h5.83a.858.858 0 0 0 .858-.857V.868A.858.858 0 0 0 11.7.011z" fill="#88C87B"/><path d="M11.7 13H5.87a.493.493 0 0 1 0-.984h5.714V.984H5.851a.493.493 0 0 1 0-.984H11.7a.87.87 0 0 1 .868.868v11.264A.87.87 0 0 1 11.7 13zm-5.83-.961a.47.47 0 0 0 0 .939h5.83c.466 0 .846-.38.846-.846V.868A.847.847 0 0 0 11.7.022H5.85a.47.47 0 0 0 0 .94h5.756v11.077H5.869z" fill="#88C87B"/><path d="M.443 5.088v2.744c0 .689.56 1.249 1.249 1.249h3.132v.443a1.244 1.244 0 0 0 .393.91 1.25 1.25 0 0 0 1.697.013l3.36-3.064a1.251 1.251 0 0 0 0-1.845l-3.36-3.064a1.244 1.244 0 0 0-1.697.013 1.235 1.235 0 0 0-.393.91v.443H1.692A1.25 1.25 0 0 0 .443 5.088zm5.055-.287a.287.287 0 0 0 .287-.287V3.396a.287.287 0 0 1 .481-.212l3.36 3.064a.287.287 0 0 1 0 .424l-3.36 3.064a.287.287 0 0 1-.48-.212V8.407a.287.287 0 0 0-.288-.288H1.692a.287.287 0 0 1-.287-.287V5.088c0-.158.128-.287.287-.287h3.806z" fill="#88C87B"/><path d="M6.074 10.785a1.26 1.26 0 0 1-1.261-1.26v-.433H1.692c-.695 0-1.26-.565-1.26-1.26V5.088c0-.694.565-1.26 1.26-1.26h3.12v-.432a1.255 1.255 0 0 1 .397-.918 1.26 1.26 0 0 1 1.713-.013L10.28 5.53a1.263 1.263 0 0 1 0 1.862l-3.36 3.064c-.232.213-.533.33-.847.33zM1.692 3.85c-.683 0-1.238.555-1.238 1.237v2.744c0 .683.555 1.238 1.238 1.238h3.143v.454a1.233 1.233 0 0 0 1.24 1.238c.307 0 .603-.115.832-.324l3.359-3.063a1.24 1.24 0 0 0 0-1.83l-3.36-3.063a1.233 1.233 0 0 0-1.682.013 1.224 1.224 0 0 0-.389.901v.455H1.692zm4.382 5.972a.3.3 0 0 1-.3-.299V8.407a.276.276 0 0 0-.276-.276H1.692a.299.299 0 0 1-.299-.299V5.088c0-.164.134-.298.299-.298h3.806a.274.274 0 0 0 .276-.276V3.396a.3.3 0 0 1 .3-.299c.074 0 .143.027.2.079L9.633 6.24a.3.3 0 0 1 0 .44l-3.36 3.065a.292.292 0 0 1-.199.078zm-4.382-5.01a.276.276 0 0 0-.276.275v2.744c0 .152.124.276.276.276h3.806c.165 0 .299.134.299.299v1.117c0 .171.144.277.277.277a.27.27 0 0 0 .185-.073l3.359-3.064a.277.277 0 0 0 0-.408l-3.36-3.064a.274.274 0 0 0-.462.204v1.118a.299.299 0 0 1-.298.298H1.692z" fill="#88C87B"/></svg><svg fill="none" viewBox="0 0 33 33" id="placeholder-filled-point" xmlns="http://www.w3.org/2000/svg"><path d="M16.5 0C9.8 0 4.35 5.45 4.35 12.15c0 1.747.359 3.415 1.063 4.958 3.038 6.647 8.862 13.665 10.575 15.657a.676.676 0 0 0 1.024 0c1.712-1.992 7.536-9.01 10.575-15.657a11.845 11.845 0 0 0 1.062-4.959C28.65 5.45 23.2 0 16.5 0zm0 18.46a6.318 6.318 0 0 1-6.311-6.311 6.318 6.318 0 0 1 6.31-6.311c3.48 0 6.311 2.831 6.311 6.31 0 3.48-2.83 6.312-6.31 6.312z" fill="#FF8454"/></svg><svg fill="none" viewBox="0 0 18 18" id="plus" xmlns="http://www.w3.org/2000/svg"><path d="M5.283 10.565a.587.587 0 0 0-.587.587V13.5a.587.587 0 0 0 1.174 0v-2.348a.587.587 0 0 0-.587-.587zM8.804 10.565a.587.587 0 0 0-.587.587V13.5a.587.587 0 0 0 1.174 0v-2.348a.587.587 0 0 0-.587-.587z" fill="#88C87B"/><path d="M16.165 10.47l.18-1.079h.677a.587.587 0 0 0 .587-.587V7.63c0-.97-.79-1.76-1.761-1.76h-.587V2.935A2.938 2.938 0 0 0 12.326 0H5.283a2.938 2.938 0 0 0-2.935 2.935V5.87H1.76C.79 5.87 0 6.66 0 7.63v1.174c0 .324.263.587.587.587h.677l.928 5.572a1.755 1.755 0 0 0 1.737 1.472h6.738A4.104 4.104 0 0 0 13.89 18 4.113 4.113 0 0 0 18 13.891c0-1.425-.73-2.683-1.835-3.42zM3.522 2.936c0-.971.79-1.761 1.76-1.761h7.044c.971 0 1.761.79 1.761 1.76V5.87h-1.174V2.935a.587.587 0 0 0-.587-.587H5.283a.587.587 0 0 0-.587.587V5.87H3.522V2.935zm8.217.587V5.87H5.87V3.522h5.87zM1.174 8.217V7.63c0-.323.263-.587.587-.587h14.087c.324 0 .587.264.587.587v.587H1.174zm8.844 7.044H3.929a.585.585 0 0 1-.579-.49l-.896-5.38h12.7l-.093.562a4.113 4.113 0 0 0-5.044 5.308zm3.873 1.565a2.938 2.938 0 0 1-2.934-2.935 2.938 2.938 0 0 1 2.934-2.934 2.938 2.938 0 0 1 2.935 2.934 2.938 2.938 0 0 1-2.935 2.935z" fill="#88C87B"/><path d="M15.065 13.304h-.587v-.587a.587.587 0 0 0-1.174 0v.587h-.587a.587.587 0 1 0 0 1.174h.587v.587a.587.587 0 1 0 1.174 0v-.587h.587a.587.587 0 1 0 0-1.174z" fill="#88C87B"/></svg><svg fill="none" viewBox="0 0 17 17" id="search" xmlns="http://www.w3.org/2000/svg"><path d="M12.678 9.97a6.69 6.69 0 0 0 .838-3.249 6.683 6.683 0 0 0-1.964-4.743A6.684 6.684 0 0 0 6.809.015a6.683 6.683 0 0 0-4.743 1.964A6.684 6.684 0 0 0 .103 6.722a6.681 6.681 0 0 0 1.964 4.743 6.683 6.683 0 0 0 4.743 1.964 6.666 6.666 0 0 0 3.02-.717l3.758 3.758a1.75 1.75 0 0 0 1.246.517c.47 0 .913-.184 1.246-.517l.303-.303a1.764 1.764 0 0 0 0-2.492L12.678 9.97zm-2.66 1.192A5.469 5.469 0 0 1 6.808 12.2a5.478 5.478 0 1 1 3.208-1.038zm5.495 4.136l-.303.303a.532.532 0 0 1-.754 0l-3.56-3.56a6.755 6.755 0 0 0 1.077-1.039l3.54 3.54a.534.534 0 0 1 0 .756z" fill="#88C87B"/><path d="M14.833 17c-.475 0-.92-.185-1.256-.52l-3.75-3.751a6.68 6.68 0 0 1-3.017.714 6.696 6.696 0 0 1-4.753-1.969A6.697 6.697 0 0 1 .088 6.721a6.697 6.697 0 0 1 1.969-4.753A6.698 6.698 0 0 1 6.809 0a6.697 6.697 0 0 1 4.753 1.969 6.697 6.697 0 0 1 1.969 4.752 6.681 6.681 0 0 1-.835 3.246l3.696 3.697c.693.693.693 1.82 0 2.513l-.302.303c-.336.335-.782.52-1.257.52zm-5.001-4.306l3.765 3.765c.33.33.77.512 1.236.512.467 0 .906-.181 1.236-.512l.303-.303a1.75 1.75 0 0 0 0-2.472l-3.711-3.712.005-.009a6.653 6.653 0 0 0 .836-3.242 6.67 6.67 0 0 0-1.96-4.732A6.67 6.67 0 0 0 6.809.029a6.668 6.668 0 0 0-4.732 1.96A6.669 6.669 0 0 0 .117 6.72a6.67 6.67 0 0 0 1.96 4.732 6.668 6.668 0 0 0 4.732 1.961 6.652 6.652 0 0 0 3.013-.715l.01-.005zm5.001 3.077a.545.545 0 0 1-.388-.16l-3.571-3.572.013-.01a6.778 6.778 0 0 0 1.075-1.036l.01-.012 3.552 3.552a.549.549 0 0 1 0 .775l-.303.303a.545.545 0 0 1-.388.16zm-3.916-3.73l3.549 3.55a.516.516 0 0 0 .734 0l.303-.303a.52.52 0 0 0 0-.735l-3.53-3.53a6.836 6.836 0 0 1-1.056 1.019zm-4.108.173a5.499 5.499 0 0 1-5.492-5.493A5.499 5.499 0 0 1 6.809 1.23a5.499 5.499 0 0 1 4.97 7.835 5.505 5.505 0 0 1-4.97 3.15zm0-10.957a5.47 5.47 0 0 0-5.464 5.464 5.47 5.47 0 0 0 7.552 5.051 5.46 5.46 0 0 0 2.19-1.652 5.415 5.415 0 0 0 1.186-3.398A5.47 5.47 0 0 0 6.81 1.256z" fill="#88C87B"/></svg><svg fill="none" viewBox="0 0 36 36" id="vk_(1)" xmlns="http://www.w3.org/2000/svg"><g clip-path="url(#kclip0)"><path fill-rule="evenodd" clip-rule="evenodd" d="M30.983 20.767c1.194 1.166 2.455 2.263 3.526 3.547.473.57.92 1.159 1.263 1.82.486.941.046 1.977-.797 2.033l-5.245-.002c-1.353.112-2.432-.433-3.34-1.357-.725-.74-1.398-1.527-2.096-2.292-.286-.312-.586-.606-.944-.839-.716-.465-1.337-.322-1.746.425-.417.759-.511 1.6-.552 2.446-.056 1.235-.43 1.56-1.67 1.617-2.652.125-5.168-.276-7.505-1.614-2.06-1.179-3.659-2.843-5.05-4.728-2.707-3.669-4.781-7.7-6.645-11.846-.42-.933-.113-1.435.917-1.452 1.711-.034 3.422-.031 5.135-.003.695.01 1.156.41 1.424 1.066.926 2.276 2.059 4.442 3.48 6.449.379.534.765 1.069 1.315 1.445.608.416 1.071.278 1.357-.4.182-.429.261-.892.302-1.352.136-1.583.153-3.163-.084-4.74-.146-.985-.7-1.622-1.683-1.808-.501-.095-.427-.282-.184-.568.422-.493.818-.8 1.609-.8h5.927c.933.184 1.14.603 1.268 1.542l.005 6.584c-.01.363.181 1.442.836 1.682.524.172.87-.248 1.184-.58 1.419-1.506 2.432-3.286 3.337-5.13.401-.81.746-1.651 1.081-2.492.248-.624.637-.931 1.34-.918l5.704.005c.17 0 .34.003.505.03.96.165 1.224.578.928 1.517-.468 1.472-1.378 2.7-2.268 3.933-.952 1.316-1.97 2.587-2.913 3.911-.866 1.21-.798 1.82.28 2.87z" fill="#FF8454"/></g><defs><clipPath id="kclip0"><path fill="#fff" d="M0 0h36v36H0z"/></clipPath></defs></svg></svg>