<svg width="274" height="274" viewBox="0 0 274 274" fill="none" xmlns="http://www.w3.org/2000/svg">
<g clip-path="url(#clip0)">
<path d="M239.545 158.344L232.471 144.701L241.704 132.441C246.58 125.998 245.304 116.771 238.844 111.862L231.583 106.39L234.334 97.7157C236.783 89.9925 232.489 81.7285 224.79 79.2869L210.137 74.6396L208.016 59.4378C206.934 51.6692 199.242 45.819 191.433 46.9008L182.396 48.1706L178.226 40.1071C174.635 33.1404 165.431 30.1945 158.44 33.8187L144.784 40.8881L132.538 31.6597C126.249 26.8455 116.728 28.2033 111.954 34.491L106.478 41.7646L97.8034 39.0134C90.0925 36.5679 81.8163 40.8586 79.3708 48.5695L74.7274 63.2105L59.4851 65.3322C51.4864 66.4613 45.8794 73.8947 47.0007 81.9177L48.2661 90.9264L40.1827 95.1171C36.6832 96.9211 34.1169 99.9745 32.9251 103.732C31.7372 107.478 32.0908 111.444 33.8942 114.903L40.9637 128.559L31.6992 140.835C29.3442 143.942 28.3482 147.802 28.8869 151.692C29.4255 155.583 31.4474 159.03 34.5788 161.393L41.8402 166.865L39.089 175.54C36.6396 183.263 40.938 191.515 48.6489 193.96L63.3021 198.608L65.4277 213.838C66.5089 221.606 74.2208 227.436 81.9894 226.355L91.018 225.069L95.2048 233.165C97.0127 236.652 100.066 239.218 103.812 240.406C107.557 241.594 111.532 241.256 114.995 239.441L128.647 232.384L140.93 241.624C147.242 246.405 156.751 245.043 161.485 238.756L166.977 231.474L175.664 234.229C183.375 236.675 191.635 232.393 194.08 224.682L198.72 210.053L213.938 207.923C221.936 206.794 227.568 199.369 226.45 191.333L225.185 182.325L233.272 178.122C240.436 174.418 243.253 165.536 239.545 158.344ZM210.712 192.479L186.715 195.825L179.39 218.922L161.114 213.125L149.542 228.442L130.209 213.865L108.703 224.984L99.8433 207.954L80.8736 210.693L77.5173 186.599L54.421 179.274L60.2175 160.998L44.9124 149.43L59.4982 130.113L48.3586 108.587L65.3931 99.7555L62.7307 80.7564L86.7273 77.4096L94.0483 54.3256L112.337 60.1259L123.905 44.8208L143.246 59.4144L164.748 48.267L173.596 65.2932L192.581 62.546L195.95 86.6434L219.046 93.9683L213.246 112.257L228.555 123.813L213.957 143.166L225.117 164.672L208.046 173.492L210.712 192.479Z" fill="#8ECEDC"/>
<path d="M171.472 135.331C157.367 130.858 144.79 139.183 140.112 153.933C135.316 169.479 142.256 182.02 154.725 185.975C166.67 189.763 180.458 184.226 185.944 166.925C190.418 152.821 185.71 139.847 171.472 135.331ZM158.443 175.565C152.843 173.789 151.908 166.617 154.766 158.03C157.389 149.758 162.036 143.954 167.88 145.807C173.847 147.699 173.952 154.863 171.285 163.269C168.345 172.542 163.897 177.295 158.443 175.565Z" fill="#8ECEDC"/>
<path d="M170.656 97.2992L96.1491 167.693L106.434 170.955L181.087 100.608L170.656 97.2992Z" fill="#8ECEDC"/>
<path d="M137.338 113.736C141.815 99.6199 137.103 86.6581 122.865 82.1424C108.761 77.6693 96.1838 85.9941 91.5056 100.745C86.5875 116.252 93.5235 128.805 106.115 132.798C118.047 136.583 131.855 131.025 137.338 113.736ZM109.828 122.361C104.228 120.585 103.285 113.437 106.029 104.787C108.652 96.5147 113.417 90.7614 119.14 92.5762C125.118 94.4723 125.357 101.678 122.695 110.073C119.742 119.341 115.294 124.094 109.828 122.361Z" fill="#8ECEDC"/>
</g>
<defs>
<clipPath id="clip0">
<rect width="217.737" height="217.737" fill="white" transform="translate(65.8236) rotate(17.5963)"/>
</clipPath>
</defs>
</svg>
